<svg xmlns="http://www.w3.org/2000/svg" viewBox="0 0 388 392">
<defs>
<style>
.cls-1{isolation:isolate;}
.cls-2{fill:#FF9C2D;}
.cls-3{fill:#fff;}
</style>
</defs>
<g id="Forma_1" data-name="Forma 1" class="cls-1">
<g id="Forma_1-2" data-name="Forma 1">
<polygon class="cls-2" points="338 30 338 40 378 40 378 106 110 106 110 38 155 38 155 27 100 27 100 162 110 162 110 117 378 117 378 284 227 284 227 294 388 294 388 30 338 30"/>
</g>
</g>
<g id="Forma_2" data-name="Forma 2" class="cls-1">
<g id="Forma_2-2" data-name="Forma 2">
<polygon class="cls-2" points="175 1 174 67 185 67 185 1 175 1"/>
</g>
</g>
<g id="Forma_3" data-name="Forma 3" class="cls-1">
<g id="Forma_3-2" data-name="Forma 3">
<rect class="cls-2" x="202" y="30" width="90" height="10"/>
</g></g><g id="Forma_11" data-name="Forma 11" class="cls-1">
<g id="Forma_11-2" data-name="Forma 11">
<rect class="cls-2" x="311" width="10" height="65"/>
</g></g><g id="Elipse_2" data-name="Elipse 2" class="cls-1">
<g id="Elipse_2-2" data-name="Elipse 2">
<ellipse class="cls-2" cx="104.5" cy="287" rx="104.5" ry="105"/>
</g>
</g>
<g id="Elipse_3" data-name="Elipse 3" class="cls-1">
<g id="Elipse_3-2" data-name="Elipse 3">
<circle class="cls-3" cx="104.5" cy="287.5" r="94.5"/>
</g>
</g>
<g id="Forma_5" data-name="Forma 5" class="cls-1">
<g id="Forma_5-2" data-name="Forma 5">
<polygon class="cls-2" points="142 150 142 160 165 160 165 181 175 181 175 150 142 150"/>
</g>
</g>
<g id="Forma_5_copia" data-name="Forma 5 copia" class="cls-1">
<g id="Forma_5_copia-2" data-name="Forma 5 copia">
<polygon class="cls-2" points="199 151 199 161 222 161 222 182 232 182 232 151 199 151"/>
</g>
</g>
<g id="Forma_5_copia_2" data-name="Forma 5 copia 2" class="cls-1">
<g id="Forma_5_copia_2-2" data-name="Forma 5 copia 2">
<polygon class="cls-2" points="255 151 255 161 278 161 278 182 288 182 288 151 255 151"/>
</g>
</g>
<g id="Forma_5_copia_3" data-name="Forma 5 copia 3" class="cls-1">
<g id="Forma_5_copia_3-2" data-name="Forma 5 copia 3">
<polygon class="cls-2" points="312 151 312 161 335 161 335 182 345 182 345 151 312 151"/>
</g>
</g>
<g id="Forma_5_copia_4" data-name="Forma 5 copia 4" class="cls-1">
<g id="Forma_5_copia_4-2" data-name="Forma 5 copia 4">
<polygon class="cls-2" points="312 207 312 217 335 217 335 238 345 238 345 207 312 207"/>
</g>
</g>
<g id="Forma_5_copia_5" data-name="Forma 5 copia 5" class="cls-1">
<g id="Forma_5_copia_5-2" data-name="Forma 5 copia 5">
<polygon class="cls-2" points="257 207 257 217 280 217 280 238 290 238 290 207 257 207"/>
</g>
</g>
<g id="Forma_5_copia_6" data-name="Forma 5 copia 6" class="cls-1"><g id="Forma_5_copia_6-2" data-name="Forma 5 copia 6">
<polygon class="cls-2" points="199 207 199 217 222 217 222 238 232 238 232 207 199 207"/>
</g>
</g>
<g id="Forma_6" data-name="Forma 6" class="cls-1">
<g id="Forma_6-2" data-name="Forma 6">
<polygon class="cls-2" points="99 245 99 289 75 312 82 320 109 292 109 245 99 245"/>
</g>
</g>
<g id="Forma_7" data-name="Forma 7" class="cls-1">
<g id="Forma_7-2" data-name="Forma 7">
<rect class="cls-2" x="98" y="208" width="10" height="18"/>
</g>
</g>
<g id="Forma_8" data-name="Forma 8" class="cls-1">
<g id="Forma_8-2" data-name="Forma 8">
<rect class="cls-2" x="98" y="346" width="10" height="20"/>
</g>
</g>
<g id="Forma_9" data-name="Forma 9" class="cls-1">
<g id="Forma_9-2" data-name="Forma 9">
<rect class="cls-2" x="162" y="283" width="22" height="9"/>
</g>
</g>
<g id="Forma_10" data-name="Forma 10" class="cls-1">
<g id="Forma_10-2" data-name="Forma 10">
<rect class="cls-2" x="24" y="282" width="22" height="10"/>
</g>
</g>
</svg>