<svg xmlns="http://www.w3.org/2000/svg" viewBox="0 0 3287.11 907.89">
    <defs>
        <style>
            .cls-1{fill:#f80114;}
            .cls-2{fill:#c40003;}
            .cls-3{fill:#FFFFFF;}
            .cls-4{fill:#fff;}
            .cls-5{fill:#FFFFFF;}
        </style>
    </defs>
    <g id="Elipse">
        <g id="Elipse_1" data-name="Elipse 1">
            <circle class="cls-1" cx="449.51" cy="309.5" r="309.5"/>
        </g>
        <g id="elipse_2" data-name="elipse 2">
            <path class="cls-2" d="M788,231.53C820.05,472.06,631.33,587,498,587c-133.79,0-324.92-114.94-291.46-354.26A308.88,308.88,0,0,0,188,338.5C188,509.43,326.57,648,497.5,648S807,509.43,807,338.5A308.86,308.86,0,0,0,788,231.53Z" transform="translate(-47.99 -29)"/>
        </g>
    </g>
    <g id="Manos">
        <g id="mano_izquierda" data-name="mano izquierda">
            <path class="cls-3" d="M923,331c-7-26.68-29-82-50-83-8.5.5-18.5,10.46-21,34s1.5,67.5,3,74c5.75,12.24,11.56,16.9,13.91,18.39A1.67,1.67,0,0,1,870,375a8.42,8.42,0,0,1-1.09-.61c-1.15-.19-3.31.41-6.91,4.61-6,7-5.41,47.07,0,62,2.86,7.89-7,21.73-7,27,42.79-17.11,50,10,57,42,2.38,40.11-6.6,60.72-22,82-12.29,20-41.73,54.19-50,71-13.5,34.83-13.08,63.18-40,99-29.1,35-41,45-41,45s25.58-38.3,39-59c13.92-21.82,14.5-72.34,27-94,9.09-19.16,65.79-63.23,69-119,2.71-35.59-3.21-69.94-35-51-31.79,20-59,58-59,58s-50.94,62.5-71,78S621.5,706.33,607,733c-2.25,3.16-10,14.47-11,28s4,60,4,60l-15-7-20.2,96.43S579,924.6,605,934c20.42,4.78,39.5,2.25,52,2,42.54-1.5,72-26,72-26s.88-42.09,2-62c14.17,0,145.61-114,202-234,6-21.5,8.5-128.76,9-155S930,357.68,923,331Z" transform="translate(-47.99 -29)"/>
        </g>
        <g id="mano_derecha" data-name="mano derecha">
            <path class="cls-3" d="M405,814l-15,7s5-46.47,4-60-8.75-24.84-11-28c-14.5-26.67-101.94-97.5-122-113s-71-78-71-78-27.21-38-59-58c-31.79-18.94-37.71,15.41-35,51,3.21,55.77,59.91,99.84,69,119,12.5,21.66,13.08,72.18,27,94,13.42,20.7,39,59,39,59s-11.9-10-41-45c-26.92-35.82-26.5-64.17-40-99-8.27-16.81-37.71-51-50-71-15.4-21.28-24.38-41.89-22-82,7-32,14.21-59.11,57-42,0-5.27-9.86-19.11-7-27,5.41-14.93,6-55,0-62-3.6-4.2-5.76-4.8-6.91-4.61A8.42,8.42,0,0,1,120,375a1.67,1.67,0,0,1,1.09-.61c2.35-1.49,8.16-6.15,13.91-18.39,1.5-6.5,5.5-50.46,3-74s-12.5-33.5-21-34c-21,1-43,56.32-50,83S47.5,432.76,48,459s3,133.5,9,155c56.39,120,187.83,234,202,234,1.12,19.91,2,62,2,62s29.46,24.5,72,26c12.5.25,31.58,2.78,52-2,26-9.4,40.2-23.57,40.2-23.57Z" transform="translate(-47.99 -29)"/>
        </g>
    </g>
    <g id="logo_interno" data-name="logo interno">
        <g id="Forma_1" data-name="Forma 1">
            <polygon class="cls-4" points="433.9 116.08 435.01 276 453.01 277 454.01 116 433.9 116.08"/>
        </g>
        <g id="Forma_2" data-name="Forma 2">
            <polygon class="cls-4" points="435.01 301 437.01 352 453.01 359 454.01 303 435.01 301"/>
        </g>
        <g id="Forma_3" data-name="Forma 3">
            <polygon class="cls-4" points="436.01 377 437.01 429 450.01 438 451.01 385 436.01 377"/>
        </g>
        <g id="Forma_4" data-name="Forma 4">
            <polygon class="cls-4" points="436.01 455 437.01 489 448.01 499 448.08 464 436.01 455"/>
        </g>
        <g id="Forma_5" data-name="Forma 5">
            <polygon class="cls-4" points="437.01 516 439.01 556 447.01 565 448.01 526 437.01 516"/>
        </g>
        <g id="Forma_6" data-name="Forma 6">
            <polygon class="cls-4" points="439.01 576 441.01 592 445.01 596 446.01 581 439.01 576"/>
        </g>
        <g id="Forma_7" data-name="Forma 7">
            <path class="cls-4" d="M554,328c-6.67-5.33-21-14.67-39-18s-28.67-3-37-4-32-4-32-4l-26-5c-8.67-1.67-16.67-9.33-19-11s-6.67-11.33,3-13c6-1.67,21,0,32,1,0,.33,4,4.33,9,6s17,2.67,20,1,6-1.67,6-7-5-16.33-16-20c-5.33-1.33-13.67,2.67-17,4-5.67-1.33-28.67-2.67-36-1s-17.67,6.33-21,10-6.33,12.67-3,20,18,18.33,27,23,30.33,10.33,48,13,54.67,6.92,64,9c10,3,20,8.67,21,21,.33,15-35.67,27.79-35,28s1,8,1,8l17,8s22-11.33,30-20,13.67-15,15-25S560.67,333.33,554,328Z" transform="translate(-47.99 -29)"/>
        </g>
        <g id="Forma_8" data-name="Forma 8">
            <path class="cls-4" d="M603,267c-3.33-3.67-13.67-8.33-21-10s-30.33-.33-36,1c-3.33-1.33-11.67-5.33-17-4-11,3.67-16,14.67-16,20s3,5.33,6,7,15,.67,20-1,9-5.67,9-6c11-1,26-2.67,32-1,9.67,1.67,5.33,11.33,3,13s-10.33,9.33-19,11l-26,5s-23.67,4-31,4a118,118,0,0,1,40,14c17.67-2.67,23-5.33,32-10s23.67-15.67,27-23S606.33,270.67,603,267Z" transform="translate(-47.99 -29)"/>
        </g>
        <g id="Forma_9" data-name="Forma 9">
            <path class="cls-4" d="M522,400c-6.45-3.37-42.67-20-49-22s-25.75-6.25-28-16,12-20,12-20,18-14,17-14c-12.75-1-29-4-29-4s-27.67,14.33-27,33,25.67,29.67,37,35,34,13,43,19,20.58,9.67,24,23c.92,11.25-22,23-22,23v10l7,6s22-10.33,27-19,7-14.33,8-27C542.67,416.33,529.67,404,522,400Z" transform="translate(-47.99 -29)"/>
        </g>
        <g id="Forma_10" data-name="Forma 10">
            <path class="cls-4" d="M493,466s-27.83-18.08-29-32c-.33-15,16-28,16-28l-18-8a49.51,49.51,0,0,0-21,31c-4,17.33,32,44,37,48s24.75,17.25,30,25-10,19-10,19v7l4,6s19.67-10.67,25-29S493,466,493,466Z" transform="translate(-47.99 -29)"/>
        </g>
        <g id="Forma_11" data-name="Forma 11">
            <path class="cls-4" d="M507,543c-3.25-7.25-8-10.25-14-16s-19.25-13.75-21-21c-1-9.75,10-17,10-17v-7l-9-7s-15.33,11.33-18,27,26,36,26,36l18,18-1,31s6.33-4.33,9-11S510.25,550.25,507,543Z" transform="translate(-47.99 -29)"/>
        </g>
        <g id="Forma_12" data-name="Forma 12">
            <path class="cls-4" d="M495,596c-5.25-5.17-7.17-7.08-10-12,.17-7.67-1.5-26.25-1-29-1-4-1-12.67-2-12-5.33.25-10,6.33-12,13s-.67,15.67,1,21,5.75,16.92,10,21c6,5.83,15,11,15,11S498.75,599.67,495,596Z" transform="translate(-47.99 -29)"/>
        </g>
        <g id="Forma_13" data-name="Forma 13">
            <path class="cls-4" d="M479,182a21.16,21.16,0,0,1-12,0c-.67-1.92-13.5-46.75-42-46.75-49,0-64,32.25-92,34.75-27.5-.5-64.75,0-64.75,1,0,7,12.75,18.5,16.75,21s16.5,10,25,11,23,1,23,1-1.5,5,10,10,17-1,17-1,.5,7.5,11,12a19.88,19.88,0,0,0,19-2s3.5,8,12,10c11.17,1.33,14-5,14-5s-1.33,8.42,13,8,15-7,15-7,5.33,7.17,13,8c8.5,1.83,23,0,23,0Z" transform="translate(-47.99 -29)"/>
        </g>
        <g id="Forma_14" data-name="Forma 14">
            <path class="cls-4" d="M651,170c-28-2.5-43-34.75-92-34.75-28.5,0-41.67,44.83-42,46.75-5,1.92-12,0-12,0l-1,55s14.5,1.83,23,0c7.67-.83,13-8,13-8s.67,6.58,15,7,13-8,13-8,2.83,6.33,14,5c8.5-2,12-10,12-10a19.88,19.88,0,0,0,19,2c10.5-4.5,11-12,11-12s5.5,6,17,1,10-10,10-10,14.5,0,23-1,21-8.5,25-11,16.75-14,16.75-21C715.75,170,678.5,169.5,651,170Z" transform="translate(-47.99 -29)"/>
        </g>
        <g id="Elipse_2-2" data-name="Elipse 2">
            <ellipse class="cls-4" cx="443.51" cy="92.5" rx="24.5" ry="21.5"/>
        </g>
    </g>
    <g id="Clínica">
        <path class="cls-5" d="M1381.86,339.94c-13,5.34-40.15,10.69-74.44,10.69-79.46,0-138.84-40.11-138.84-114.31,0-70.87,59.8-118.33,147.21-118.33,34.71,0,57.29,6,66.91,10l-9.2,23.73c-13.39-5.35-33-9.36-56.46-9.36-66.08,0-110,33.76-110,92.92,0,55.49,39.73,90.59,107.9,90.59,22.58,0,45.16-3.68,59.8-9.36Z" transform="translate(-47.99 -29)"/>
        <path class="cls-5" d="M1426.6,109.63h36.81V347H1426.6Z" transform="translate(-47.99 -29)"/>
        <path class="cls-5" d="M1600.15,115.31l-51,47.8h-25.92l36.8-47.8ZM1525.3,347V185.17h36.8V347Z" transform="translate(-47.99 -29)"/>
        <path class="cls-5" d="M1623.15,229c0-17-.41-30.42-1.67-43.79h32.62l2.09,26.75h.84c10-15,33.45-30.09,66.91-30.09,28,0,71.51,13.37,71.51,68.86V347h-36.8V253.7c0-26.08-12.13-47.8-46.84-47.8-23.84,0-42.65,13.7-49.35,30.08a34.62,34.62,0,0,0-2.51,13.71V347h-36.8Z" transform="translate(-47.99 -29)"/>
        <path class="cls-5" d="M1896.24,139.71c0,10-8.79,18.06-23.42,18.06-13.39,0-22.17-8-22.17-18.06s9.2-18.38,23-18.38C1887,121.33,1896.24,129.35,1896.24,139.71Zm-41,207.25V185.17h36.8V347Z" transform="translate(-47.99 -29)"/>
        <path class="cls-5" d="M2097.39,341.27c-9.62,3.68-30.95,9.36-58.13,9.36-61.06,0-100.79-33.09-100.79-82.56,0-49.8,42.66-86.24,108.73-86.24,21.75,0,41,4.35,51,8.69l-8.36,22.4c-8.78-3.68-22.58-7.69-42.66-7.69-46.42,0-71.51,27.74-71.51,61.17,0,37.44,30.11,60.5,70.26,60.5a127.72,127.72,0,0,0,45.16-7.69Z" transform="translate(-47.99 -29)"/>
        <path class="cls-5" d="M2282.65,308.18c0,14,.84,27.74,2.93,38.78h-33l-2.93-20.39h-1.25c-11.29,12.7-33,24.06-61.9,24.06-41,0-61.89-23.06-61.89-46.46,0-39.11,43.49-60.5,121.7-60.17v-3.34c0-13-4.6-37.44-46-37.1-19.23,0-38.89,4.34-53.11,12l-8.36-19.72c16.73-8.36,41.4-14,66.91-14,61.89,0,77,33.76,77,65.85Zm-35.55-43.79c-40.14-.66-85.73,5-85.73,36.44,0,19.38,15.89,28.08,34.29,28.08,26.77,0,43.92-13.37,49.77-27.08a27.12,27.12,0,0,0,1.67-9.36Z" transform="translate(-47.99 -29)"/>
    </g>
    <g id="La_Luz" data-name="La Luz">
        <path class="cls-2" d="M1162,470.13h122V835.68h215.06v85.7H1162Z" transform="translate(-47.99 -29)"/>
        <path class="cls-2" d="M1897.07,842.38c0,30.79,1.6,60.92,6.42,79H1793.55l-7.22-32.81h-2.41c-25.68,26.11-65.8,40.17-112.35,40.17-79.44,0-126.79-48.2-126.79-100.42,0-85,91.48-125.2,230.31-125.2v-4c0-18.08-11.23-42.85-71.42-42.85-40.12,0-82.65,11.38-108.33,24.77l-22.47-65.61c27.28-12.72,81.05-29.46,152.47-29.46,130.8,0,171.73,64.28,171.73,141.94Zm-118-75.66c-64.19,0-113.95,12.72-113.95,51.55,0,26.11,20.87,38.84,48.15,38.84,29.69,0,55.37-16.74,63.4-37.5a61.63,61.63,0,0,0,2.4-17.4Z" transform="translate(-47.99 -29)"/>
        <path class="cls-2" d="M2161.08,470.13h122V835.68h215.07v85.7h-337Z" transform="translate(-47.99 -29)"/>
        <path class="cls-2" d="M2927.44,816.26c0,42.85,1.61,77.67,3.21,105.12H2824.73l-5.62-46.2h-2.41c-15.25,20.09-52.16,53.56-122.78,53.56-80.25,0-138-41.51-138-142.6V594h122V770.07c0,47.53,18.46,76.32,61.79,76.32,33.71,0,53.77-19.41,61-35.48q4.82-9,4.82-22.09V594h122Z" transform="translate(-47.99 -29)"/>
        <path class="cls-2" d="M2994,863.13l123.58-129.21c22.47-21.43,40.13-38.17,61.8-57.58V675H3007.69V594h321v61.59l-118,123.86C3189,800.2,3169,821,3146.51,839v1.34h188.58v81H2994Z" transform="translate(-47.99 -29)"/>
    </g>
</svg>