<svg xmlns="http://www.w3.org/2000/svg" viewBox="0 0 189.24 189.58">
<defs>
<style>
.cls-1{fill:#fff;}
.cls-2{fill:#BF1B23;}
</style>
</defs>
<g id="Capa_2" data-name="Capa 2">
<g id="Capa_1-2" data-name="Capa 1">
<g id="email">
<path id="email1" class="cls-2" d="M189.2,95c1.45,46.62-37.33,94.42-94.57,94.59C42.1,189.74.13,147.24,0,94.35-.13,40.9,45.46-1.78,98,.06,148.67,1.82,190.62,45,189.2,95Z"/>
<path id="email2" class="cls-1" d="M38.2,69.06,63.9,85c8.62,5.36,17.3,10.64,25.83,16.14,3.55,2.29,6.58,2.17,10.12-.07,15.33-9.7,30.77-19.23,46.17-28.82,1.39-.87,2.82-1.67,4.74-2.79.17,1.62.42,2.82.42,4q0,24.49,0,49c0,8-3.57,11.45-11.68,11.45q-44.49,0-89,0c-9.08,0-12.33-3.27-12.33-12.34C38.19,104.45,38.2,87.3,38.2,69.06Z"/>
<path id="email3" class="cls-1" d="M149.09,68H40.56c1.69-1.37,2.54-2.22,3.54-2.85,15.78-9.86,31.55-19.76,47.44-29.45,1.46-.9,4.26-1.29,5.57-.49C113.73,45.33,130.19,55.69,146.68,66,147.19,66.31,147.61,66.77,149.09,68Z"/>
</g>
</g>
</g>
</svg>