<svg xmlns="http://www.w3.org/2000/svg" width="1" height="1" viewBox="0 0 1 1">
  <defs>
    <style>
      .cls-1 {
        fill: #fff;
        fillRule: evenodd;
      }
    </style>
  </defs>
  <path id="Forma_1" data-name="Forma 1" class="cls-1" d="M46.873,42a0.108,0.108,0,0,0-.07.02,0.1,0.1,0,0,0-.02.08c0,0.015,0,.6,0,0.6h0.086a0.07,0.07,0,0,1,.05.019,0.044,0.044,0,0,1,.014.041s0,0.215,0,.215l0.123-.058V43h0.636a0.107,0.107,0,0,0,.067-0.031,0.086,0.086,0,0,0,.026-0.052V42.239h-0.1a0.062,0.062,0,0,1-.065-0.051,0.084,0.084,0,0,1,.024-0.064H47.514V42H46.873Z" transform="translate(-46.781 -42)"/>
</svg>
