<svg xmlns="http://www.w3.org/2000/svg" width="1" height="1" viewBox="0 0 1 1">
  <defs>
    <style>
      .cls-1 {
        fill: #fff;
        fillRule: evenodd;
      }
    </style>
  </defs>
  <path id="Forma_2" data-name="Forma 2" class="cls-1" d="M26.689,21a0.108,0.108,0,0,0,.07-0.02,0.1,0.1,0,0,0,.02-0.08c0-.015,0-0.6,0-0.6H26.7a0.07,0.07,0,0,1-.049-0.019,0.044,0.044,0,0,1-.014-0.041s0-.215,0-0.215l-0.123.058V20H25.874a0.094,0.094,0,0,0-.071.02,0.082,0.082,0,0,0-.022.063v0.677h0.1a0.062,0.062,0,0,1,.065.051,0.084,0.084,0,0,1-.024.064h0.124V21h0.641Z" transform="translate(-25.781 -20)"/>
</svg>
