<svg xmlns="http://www.w3.org/2000/svg" width="1" height="1" viewBox="0 0 1 1">
  <defs>
    <style>
      .cls-1 {
        fill: #fff;
        fillRule: evenodd;
      }
    </style>
  </defs>
  <path id="Forma_3" data-name="Forma 3" class="cls-1" d="M37.689,35a0.108,0.108,0,0,1,.07.02,0.1,0.1,0,0,1,.02.08c0,0.015,0,.6,0,0.6H37.7a0.07,0.07,0,0,0-.05.019,0.044,0.044,0,0,0-.014.041s0,0.215,0,.215l-0.123-.058V36H36.874a0.094,0.094,0,0,1-.071-0.02,0.082,0.082,0,0,1-.022-0.063V35.239h0.1a0.062,0.062,0,0,0,.065-0.051,0.084,0.084,0,0,0-.024-0.064h0.124V35h0.641Z" transform="translate(-36.781 -35)"/>
</svg>
