<svg xmlns="http://www.w3.org/2000/svg" viewBox="0 0 188.51 188.67">
<defs>
<style>
.cls-1{fill:#fff;}
.cls-2{fill:#BF1B23;}
</style>
</defs>
<g id="Capa_2" data-name="Capa 2"><g id="Capa_1-2" data-name="Capa 1">
<g id="horarios">
<path id="circulo" class="cls-2" d="M188.51,94.17c.18,51.57-42,94.37-93.21,94.5C43,188.8.12,147.1,0,95.86-.13,42.61,41.27.34,93.87,0,145.66-.33,188.33,42.13,188.51,94.17Z"/>
<path id="pin1" class="cls-1" d="M96.75,73.22c3.22-3.39,6.47-6.51,9.34-10a7.18,7.18,0,0,0,1.34-4.74c-.71-8,3.4-11.92,11.1-9.55,10.93,3.37,18.22,10.89,21.56,21.76,2.24,7.3-2,11.62-9.55,10.71-1.52-.18-3.2.82-4.78,1.37-.43.15-.69.72-1.08,1C118.35,88.7,114,94,120,102.14c1.07,1.45,1.08,3.82,1.23,5.79.52,7-3.77,11.69-10.72,11.25a27.88,27.88,0,0,1-9.61-2.29A56.35,56.35,0,0,1,71.78,87.43a26.63,26.63,0,0,1-2.11-9.65c-.2-6.22,3.69-10,9.9-9.91a32.43,32.43,0,0,1,8.77,1.53C91,70.21,93.46,71.69,96.75,73.22Z"/>
<path id="pin2" class="cls-1" d="M70.71,104.8l13,12.81-32,19.89-.78-.68Z"/>
</g>
</g>
</g>
</svg>