<svg id="Capa_2" data-name="Capa 2" xmlns="http://www.w3.org/2000/svg" viewBox="0 0 8.6 8.49">
    <defs>
        <style>
            .cls-1{fill:#010101;}
        </style>
    </defs>
    <path class="cls-1" d="M7.28,2.27a.5.5,0,0,0-.51.5.51.51,0,0,0,1,0A.5.5,0,0,0,7.28,2.27Z" transform="translate(-0.7 -0.76)"/>
    <path class="cls-1" d="M5,2.91A2.09,2.09,0,1,0,7.15,5,2.11,2.11,0,0,0,5,2.91ZM5,6.34A1.34,1.34,0,1,1,6.39,5,1.35,1.35,0,0,1,5,6.34Z" transform="translate(-0.7 -0.76)"/>
    <path class="cls-1" d="M6.72,9.24H3.28A2.57,2.57,0,0,1,.7,6.69V3.31A2.57,2.57,0,0,1,3.28.76H6.72A2.57,2.57,0,0,1,9.3,3.31V6.69A2.57,2.57,0,0,1,6.72,9.24ZM3.28,1.55A1.77,1.77,0,0,0,1.51,3.31V6.69A1.77,1.77,0,0,0,3.28,8.45H6.72A1.77,1.77,0,0,0,8.49,6.69V3.31A1.77,1.77,0,0,0,6.72,1.55Z" transform="translate(-0.7 -0.76)"/>
</svg>