<svg xmlns="http://www.w3.org/2000/svg" viewBox="0 0 2838.83 894.89">
    <defs>
        <style>
            .cls-1{fill:#FFFFFF;}
            .cls-2{fill:#aa1d1d;}
            .cls-3{fill:#fff;}
            .cls-4{fill:#FFFFFF;}
            .cls-5{fill:#ae1b1c;}
        </style>
    </defs>
    <g id="Manos">
        <g id="mano_izquierda" data-name="mano izquierda">
                    <path class="cls-1" d="M923,331c-7-26.68-29-82-50-83-8.5.5-18.5,10.46-21,34s1.5,67.5,3,74c5.75,12.24,11.56,16.9,13.91,18.39A1.67,1.67,0,0,1,870,375a8.42,8.42,0,0,1-1.09-.61c-1.15-.19-3.31.41-6.91,4.61-6,7-5.41,47.07,0,62,2.86,7.89-7,21.73-7,27,42.79-17.11,50,10,57,42,2.38,40.11-6.6,60.72-22,82-12.29,20-41.73,54.19-50,71-13.5,34.83-13.08,63.18-40,99-29.1,35-41,45-41,45s25.58-38.3,39-59c13.92-21.82,14.5-72.34,27-94,9.09-19.16,65.79-63.23,69-119,2.71-35.59-3.21-69.94-35-51-31.79,20-59,58-59,58s-50.94,62.5-71,78S621.5,706.33,607,733c-2.25,3.16-10,14.47-11,28s4,60,4,60l-15-7-20.2,96.43S579,924.6,605,934c20.42,4.78,39.5,2.25,52,2,42.54-1.5,72-26,72-26s.88-42.09,2-62c14.17,0,145.61-114,202-234,6-21.5,8.5-128.76,9-155S930,357.68,923,331Z" transform="translate(-47.99 -42)"/>
        </g>
        <g id="mano_derecha" data-name="mano derecha">
                    <path class="cls-1" d="M405,814l-15,7s5-46.47,4-60-8.75-24.84-11-28c-14.5-26.67-101.94-97.5-122-113s-71-78-71-78-27.21-38-59-58c-31.79-18.94-37.71,15.41-35,51,3.21,55.77,59.91,99.84,69,119,12.5,21.66,13.08,72.18,27,94,13.42,20.7,39,59,39,59s-11.9-10-41-45c-26.92-35.82-26.5-64.17-40-99-8.27-16.81-37.71-51-50-71-15.4-21.28-24.38-41.89-22-82,7-32,14.21-59.11,57-42,0-5.27-9.86-19.11-7-27,5.41-14.93,6-55,0-62-3.6-4.2-5.76-4.8-6.91-4.61A8.42,8.42,0,0,1,120,375a1.67,1.67,0,0,1,1.09-.61c2.35-1.49,8.16-6.15,13.91-18.39,1.5-6.5,5.5-50.46,3-74s-12.5-33.5-21-34c-21,1-43,56.32-50,83S47.5,432.76,48,459s3,133.5,9,155c56.39,120,187.83,234,202,234,1.12,19.91,2,62,2,62s29.46,24.5,72,26c12.5.25,31.58,2.78,52-2,26-9.4,40.2-23.57,40.2-23.57Z" transform="translate(-47.99 -42)"/>
        </g>
    </g>
    <g id="circulos">
        <g id="Elipse_3" data-name="Elipse 3">
            <circle class="cls-2" cx="442.51" cy="301.5" r="301.5"/>
        </g>
        <g id="Elipse_4" data-name="Elipse 4">
            <circle class="cls-3" cx="493.5" cy="355.5" r="151.5" transform="translate(-154.82 411.08) rotate(-45)"/>
        </g>
        <g id="Elipse_5" data-name="Elipse 5">
            <circle class="cls-2" cx="496.5" cy="352.5" r="52.5" transform="translate(-108.72 65.03) rotate(-11.6)"/>
        </g>
    </g>
    <g id="Instituto_Oftalmológico" data-name="Instituto Oftalmológico">
        <path class="cls-4" d="M1074.27,408.58a2.42,2.42,0,0,1-.38,1.38,2.5,2.5,0,0,1-1.34.94,13.64,13.64,0,0,1-2.54.6,32.54,32.54,0,0,1-7.89,0,13.71,13.71,0,0,1-2.59-.6,2.54,2.54,0,0,1-1.34-.94,2.5,2.5,0,0,1-.38-1.38V285.8a2.24,2.24,0,0,1,.43-1.38,2.86,2.86,0,0,1,1.44-.94,16,16,0,0,1,2.58-.6,25.54,25.54,0,0,1,3.78-.24,27.09,27.09,0,0,1,4,.24,14.49,14.49,0,0,1,2.54.6,2.5,2.5,0,0,1,1.34.94,2.42,2.42,0,0,1,.38,1.38Z" transform="translate(-47.99 -42)"/>
        <path class="cls-4" d="M1179.57,408.68a2.2,2.2,0,0,1-.38,1.33,2.9,2.9,0,0,1-1.24.94,8.68,8.68,0,0,1-2.4.6,31.21,31.21,0,0,1-3.83.19,32.26,32.26,0,0,1-3.92-.19,8.5,8.5,0,0,1-2.39-.6,2.94,2.94,0,0,1-1.25-.94,2.27,2.27,0,0,1-.38-1.33v-52.1a52.65,52.65,0,0,0-1.15-12.26,25.88,25.88,0,0,0-3.35-8,14.66,14.66,0,0,0-5.7-5.14,17.52,17.52,0,0,0-8.08-1.78q-5.94,0-11.88,4.35a65.58,65.58,0,0,0-12.44,12.75v62.18a2.27,2.27,0,0,1-.38,1.33,2.94,2.94,0,0,1-1.25.94,8.5,8.5,0,0,1-2.39.6,32.26,32.26,0,0,1-3.92.19,31.21,31.21,0,0,1-3.83-.19,9.3,9.3,0,0,1-2.45-.6,2.57,2.57,0,0,1-1.24-.94,2.5,2.5,0,0,1-.33-1.33v-89a2.89,2.89,0,0,1,.28-1.34,2.63,2.63,0,0,1,1.15-1,6.56,6.56,0,0,1,2.2-.59,41.38,41.38,0,0,1,7,0,5.66,5.66,0,0,1,2.15.59,3.08,3.08,0,0,1,1.1,1,2.47,2.47,0,0,1,.34,1.34v11.76q7.27-8.4,14.5-12.31a30.45,30.45,0,0,1,14.6-3.9q8.61,0,14.5,3a26.44,26.44,0,0,1,9.53,8.06,32.63,32.63,0,0,1,5.21,11.81,72.21,72.21,0,0,1,1.58,16.27Z" transform="translate(-47.99 -42)"/>
        <path class="cls-4" d="M1262.47,384.46a28.89,28.89,0,0,1-2.44,12.16,24.45,24.45,0,0,1-6.94,9,30.89,30.89,0,0,1-10.72,5.54,47.3,47.3,0,0,1-13.69,1.88,50.75,50.75,0,0,1-16.22-2.62,38.33,38.33,0,0,1-5.6-2.37,16.36,16.36,0,0,1-3.35-2.23A5.68,5.68,0,0,1,1202,403a19.39,19.39,0,0,1-.47-4.84,21.57,21.57,0,0,1,.19-3.16,9.9,9.9,0,0,1,.48-2.08,2.23,2.23,0,0,1,.81-1.14,2.13,2.13,0,0,1,1.2-.34,6.71,6.71,0,0,1,3.11,1.33c1.37.89,3.06,1.87,5.07,2.92a46.5,46.5,0,0,0,7.13,2.92A30.74,30.74,0,0,0,1229,400a27.68,27.68,0,0,0,7.27-.89,17.31,17.31,0,0,0,5.65-2.62,11.49,11.49,0,0,0,3.69-4.4,14.42,14.42,0,0,0,1.29-6.33,10.42,10.42,0,0,0-1.87-6.32,17.93,17.93,0,0,0-4.93-4.55,40,40,0,0,0-6.89-3.51q-3.83-1.53-7.9-3.21a79.19,79.19,0,0,1-7.94-3.81,29.89,29.89,0,0,1-6.94-5.19,23.48,23.48,0,0,1-4.93-7.31,25.16,25.16,0,0,1-1.87-10.19,26.4,26.4,0,0,1,2-10,23.19,23.19,0,0,1,5.89-8.4,29.31,29.31,0,0,1,9.81-5.79,39.63,39.63,0,0,1,13.74-2.17,41,41,0,0,1,6.89.59,47.1,47.1,0,0,1,6.22,1.48,30.33,30.33,0,0,1,4.74,1.93,20,20,0,0,1,3,1.83,5.23,5.23,0,0,1,1.34,1.39,4.56,4.56,0,0,1,.48,1.33c.1.49.19,1.1.29,1.83a22.07,22.07,0,0,1,.14,2.67,27,27,0,0,1-.14,2.91,7.77,7.77,0,0,1-.48,2,2.67,2.67,0,0,1-.82,1.14,1.76,1.76,0,0,1-1.05.34,5.26,5.26,0,0,1-2.49-1.08,34.43,34.43,0,0,0-4.21-2.33,46.69,46.69,0,0,0-6.08-2.32,27,27,0,0,0-8-1.09,24.38,24.38,0,0,0-7.08.94,13.52,13.52,0,0,0-5,2.67,11.23,11.23,0,0,0-3,4.1,13.09,13.09,0,0,0-1,5.14,10.67,10.67,0,0,0,1.91,6.48,18.56,18.56,0,0,0,5,4.6,41.48,41.48,0,0,0,7,3.56c2.61,1.05,5.28,2.14,8,3.26s5.39,2.37,8,3.75a30.33,30.33,0,0,1,7,5,22.9,22.9,0,0,1,4.93,7.11A24.08,24.08,0,0,1,1262.47,384.46Z" transform="translate(-47.99 -42)"/>
        <path class="cls-4" d="M1357.82,317.14c1.91,0,3.22.44,3.92,1.33a6.22,6.22,0,0,1,1.06,3.91v86.3a2.2,2.2,0,0,1-.39,1.33,2.85,2.85,0,0,1-1.29.94,9.32,9.32,0,0,1-2.44.6,30.34,30.34,0,0,1-3.73.19,32.33,32.33,0,0,1-3.93-.19,9.32,9.32,0,0,1-2.44-.6,2.85,2.85,0,0,1-1.29-.94,2.2,2.2,0,0,1-.38-1.33v-78h-44.52v49.63q0,9.19,2.63,13.89t9.43,4.69a16.11,16.11,0,0,0,3.93-.44c1.15-.3,2.17-.61,3.06-.94s1.66-.64,2.3-.94a4.11,4.11,0,0,1,1.72-.45,1.86,1.86,0,0,1,.91.25,1.65,1.65,0,0,1,.67.94,11.9,11.9,0,0,1,.43,1.88,18.81,18.81,0,0,1,.19,3,20.3,20.3,0,0,1-.38,4.5,5.42,5.42,0,0,1-1.15,2.47,6.76,6.76,0,0,1-2.29,1.54,18.21,18.21,0,0,1-3.5,1.13c-1.31.3-2.7.55-4.16.74a32.68,32.68,0,0,1-4.41.3,32.18,32.18,0,0,1-11.48-1.83,18.5,18.5,0,0,1-7.85-5.53,22.93,22.93,0,0,1-4.45-9.39,56.77,56.77,0,0,1-1.39-13.4v-52h-12.06a2.58,2.58,0,0,1-2.3-1.58,11.27,11.27,0,0,1-.86-5.14,17.72,17.72,0,0,1,.24-3.17,8.67,8.67,0,0,1,.62-2.12,2.46,2.46,0,0,1,1-1.19,2.83,2.83,0,0,1,1.39-.34h12V296a2.57,2.57,0,0,1,.33-1.28,2.79,2.79,0,0,1,1.25-1,7.79,7.79,0,0,1,2.44-.64,29.21,29.21,0,0,1,3.83-.2,30.09,30.09,0,0,1,3.92.2,7.36,7.36,0,0,1,2.4.64,3.2,3.2,0,0,1,1.24,1,2.34,2.34,0,0,1,.38,1.28v21.16Zm6.8-27.49c0,3.83-.71,6.43-2.11,7.81s-4,2.08-7.75,2.08-6.24-.67-7.61-2-2.06-3.9-2.06-7.66.7-6.42,2.1-7.81,4-2.07,7.76-2.07,6.23.67,7.61,2S1364.62,285.9,1364.62,289.65Z" transform="translate(-47.99 -42)"/>
        <path class="cls-4" d="M1436.89,402.15a21.71,21.71,0,0,1-.38,4.55,5.17,5.17,0,0,1-1.15,2.47,7.43,7.43,0,0,1-2.3,1.49,18.1,18.1,0,0,1-3.49,1.13c-1.31.3-2.7.55-4.17.74a32.53,32.53,0,0,1-4.4.3,32.2,32.2,0,0,1-11.49-1.83,18.56,18.56,0,0,1-7.85-5.53,23.05,23.05,0,0,1-4.45-9.39,56.77,56.77,0,0,1-1.39-13.4v-52h-12.06a2.59,2.59,0,0,1-2.3-1.58,11.41,11.41,0,0,1-.86-5.14,17.72,17.72,0,0,1,.24-3.17,9.65,9.65,0,0,1,.62-2.12,2.47,2.47,0,0,1,1-1.19,2.81,2.81,0,0,1,1.39-.34h12V296a2.48,2.48,0,0,1,.34-1.28,2.7,2.7,0,0,1,1.24-1,7.87,7.87,0,0,1,2.44-.64,29.21,29.21,0,0,1,3.83-.2,30.16,30.16,0,0,1,3.93.2,7.22,7.22,0,0,1,2.39.64,3.13,3.13,0,0,1,1.24,1,2.27,2.27,0,0,1,.39,1.28v21.16h22.11a2.54,2.54,0,0,1,1.34.34,2.91,2.91,0,0,1,1,1.19,7.21,7.21,0,0,1,.62,2.12,21.81,21.81,0,0,1,.19,3.17,11.41,11.41,0,0,1-.86,5.14,2.59,2.59,0,0,1-2.3,1.58h-22.11v49.63q0,9.19,2.63,13.89t9.43,4.69a16,16,0,0,0,3.92-.44c1.15-.3,2.17-.61,3.07-.94s1.66-.64,2.29-.94a4.15,4.15,0,0,1,1.73-.45,1.86,1.86,0,0,1,.91.25,1.7,1.7,0,0,1,.67.94,11.9,11.9,0,0,1,.43,1.88A18.81,18.81,0,0,1,1436.89,402.15Z" transform="translate(-47.99 -42)"/>
        <path class="cls-4" d="M1531.56,408.68a2.5,2.5,0,0,1-.33,1.33,2.59,2.59,0,0,1-1.2.94,8.23,8.23,0,0,1-2.25.6,25,25,0,0,1-3.4.19,27,27,0,0,1-3.59-.19,7.64,7.64,0,0,1-2.2-.6,2.28,2.28,0,0,1-1.1-.94,2.81,2.81,0,0,1-.29-1.33V396.92q-7.37,8.4-14.55,12.25A30.43,30.43,0,0,1,1488.1,413a32,32,0,0,1-14.5-3,25.62,25.62,0,0,1-9.52-8.05,33,33,0,0,1-5.22-11.87,73.73,73.73,0,0,1-1.58-16.46v-54a2.56,2.56,0,0,1,.33-1.34,3,3,0,0,1,1.3-1,7.85,7.85,0,0,1,2.49-.59c1-.1,2.29-.15,3.82-.15s2.81.05,3.83.15a7.51,7.51,0,0,1,2.45.59,3.47,3.47,0,0,1,1.29,1,2.32,2.32,0,0,1,.38,1.34v51.8a57,57,0,0,0,1.1,12.5,23.65,23.65,0,0,0,3.35,8,15.69,15.69,0,0,0,5.7,5.14,16.86,16.86,0,0,0,8,1.83c4,0,7.9-1.45,11.82-4.35a68,68,0,0,0,12.49-12.75V319.71a2.47,2.47,0,0,1,.34-1.34,2.91,2.91,0,0,1,1.29-1,7.86,7.86,0,0,1,2.44-.59c1-.1,2.28-.15,3.88-.15s2.81.05,3.83.15a6.87,6.87,0,0,1,2.39.59,3.84,3.84,0,0,1,1.29,1,2.09,2.09,0,0,1,.43,1.34Z" transform="translate(-47.99 -42)"/>
        <path class="cls-4" d="M1605.56,402.15a21.71,21.71,0,0,1-.38,4.55,5.17,5.17,0,0,1-1.15,2.47,7.43,7.43,0,0,1-2.3,1.49,18.1,18.1,0,0,1-3.49,1.13c-1.31.3-2.7.55-4.17.74a32.53,32.53,0,0,1-4.4.3,32.2,32.2,0,0,1-11.49-1.83,18.62,18.62,0,0,1-7.85-5.53,23.18,23.18,0,0,1-4.45-9.39,57.3,57.3,0,0,1-1.39-13.4v-52h-12.06a2.6,2.6,0,0,1-2.3-1.58,11.41,11.41,0,0,1-.86-5.14,17.72,17.72,0,0,1,.24-3.17,9.65,9.65,0,0,1,.62-2.12,2.47,2.47,0,0,1,1-1.19,2.81,2.81,0,0,1,1.39-.34h12V296a2.48,2.48,0,0,1,.34-1.28,2.75,2.75,0,0,1,1.24-1,7.87,7.87,0,0,1,2.44-.64,29.21,29.21,0,0,1,3.83-.2,30.16,30.16,0,0,1,3.93.2,7.22,7.22,0,0,1,2.39.64,3.16,3.16,0,0,1,1.25,1,2.34,2.34,0,0,1,.38,1.28v21.16h22.11a2.54,2.54,0,0,1,1.34.34,2.91,2.91,0,0,1,1,1.19,7.21,7.21,0,0,1,.62,2.12,21.81,21.81,0,0,1,.19,3.17,11.41,11.41,0,0,1-.86,5.14,2.59,2.59,0,0,1-2.3,1.58h-22.11v49.63q0,9.19,2.63,13.89t9.43,4.69a16.11,16.11,0,0,0,3.93-.44c1.14-.3,2.16-.61,3.06-.94s1.66-.64,2.3-.94a4.08,4.08,0,0,1,1.72-.45,1.86,1.86,0,0,1,.91.25,1.65,1.65,0,0,1,.67.94,11.9,11.9,0,0,1,.43,1.88A18.81,18.81,0,0,1,1605.56,402.15Z" transform="translate(-47.99 -42)"/>
        <path class="cls-4" d="M1704.64,363.21a68.59,68.59,0,0,1-2.78,20,44.53,44.53,0,0,1-8.28,15.77,37.52,37.52,0,0,1-13.78,10.33,46.61,46.61,0,0,1-19.2,3.71,48.4,48.4,0,0,1-18.52-3.26,34,34,0,0,1-13.16-9.49,40.69,40.69,0,0,1-7.85-15.13,72.41,72.41,0,0,1-2.59-20.17,69.7,69.7,0,0,1,2.73-20,44,44,0,0,1,8.23-15.77,37.18,37.18,0,0,1,13.74-10.28,47,47,0,0,1,19.24-3.66,48.42,48.42,0,0,1,18.53,3.26,34,34,0,0,1,13.16,9.49,41.29,41.29,0,0,1,7.9,15.13A70.87,70.87,0,0,1,1704.64,363.21Zm-16.37,1.08a68.48,68.48,0,0,0-1.31-13.64,34.35,34.35,0,0,0-4.29-11.27,21.6,21.6,0,0,0-8.12-7.66,26.14,26.14,0,0,0-12.75-2.82,26.57,26.57,0,0,0-12.12,2.57,22.52,22.52,0,0,0-8.36,7.27,33.06,33.06,0,0,0-4.87,11.12,57.84,57.84,0,0,0-1.6,14,69.06,69.06,0,0,0,1.31,13.74,33.22,33.22,0,0,0,4.34,11.22,22.08,22.08,0,0,0,8.17,7.61,26.14,26.14,0,0,0,12.75,2.82,26.64,26.64,0,0,0,12.07-2.57,22.55,22.55,0,0,0,8.4-7.22,31.92,31.92,0,0,0,4.83-11.07A60.47,60.47,0,0,0,1688.27,364.29Z" transform="translate(-47.99 -42)"/>
        <path class="cls-4" d="M1877.81,345.71a102.28,102.28,0,0,1-3.54,28,59.19,59.19,0,0,1-10.58,21.21A46.32,46.32,0,0,1,1846,408.33q-10.63,4.69-24.8,4.7-14,0-24.17-4.3a42.73,42.73,0,0,1-16.85-12.51,54.17,54.17,0,0,1-9.9-20.36,108.6,108.6,0,0,1-3.26-28,99.66,99.66,0,0,1,3.54-27.48,57.91,57.91,0,0,1,10.63-21,47.2,47.2,0,0,1,17.71-13.34q10.62-4.69,24.79-4.7,13.69,0,23.84,4.25a43.32,43.32,0,0,1,16.9,12.41,53.62,53.62,0,0,1,10,20.17A104.14,104.14,0,0,1,1877.81,345.71Zm-17.42,1.18a103.48,103.48,0,0,0-1.87-20.21,47.38,47.38,0,0,0-6.21-16.22,30.36,30.36,0,0,0-11.62-10.72q-7.26-3.86-18-3.86t-18,4.16a34,34,0,0,0-11.8,11.07,46.88,46.88,0,0,0-6.51,16.16,93.92,93.92,0,0,0-2,19.43,110.72,110.72,0,0,0,1.82,20.76,47.3,47.3,0,0,0,6.12,16.36,29.65,29.65,0,0,0,11.52,10.67q7.21,3.81,18.12,3.81t18.16-4.15a33.15,33.15,0,0,0,11.86-11.22,48.4,48.4,0,0,0,6.4-16.36A97.18,97.18,0,0,0,1860.39,346.89Z" transform="translate(-47.99 -42)"/>
        <path class="cls-4" d="M1922,330.68v78a2.2,2.2,0,0,1-.39,1.33,2.85,2.85,0,0,1-1.29.94,9.32,9.32,0,0,1-2.44.6,38.7,38.7,0,0,1-7.66,0,9.32,9.32,0,0,1-2.44-.6,2.85,2.85,0,0,1-1.29-.94,2.2,2.2,0,0,1-.39-1.33v-78H1894a2.46,2.46,0,0,1-2.3-1.58,12.6,12.6,0,0,1-.77-5.14,21.65,21.65,0,0,1,.2-3.17,7.62,7.62,0,0,1,.57-2.12,2.51,2.51,0,0,1,1-1.19,2.54,2.54,0,0,1,1.34-.34h12.15v-9.2a66.11,66.11,0,0,1,1.68-16,28.49,28.49,0,0,1,5.07-10.93,20.2,20.2,0,0,1,8.62-6.27,33.94,33.94,0,0,1,12.3-2,32,32,0,0,1,6.89.74,27.69,27.69,0,0,1,4.79,1.39,6.76,6.76,0,0,1,2,1.23,4.41,4.41,0,0,1,.91,1.53,10.56,10.56,0,0,1,.48,2.28c.09.89.14,2,.14,3.21a26.69,26.69,0,0,1-.14,3,7.5,7.5,0,0,1-.43,1.82,2,2,0,0,1-.67.94,1.55,1.55,0,0,1-.87.25,4.24,4.24,0,0,1-1.72-.44c-.64-.3-1.43-.63-2.39-1a26.8,26.8,0,0,0-3.4-1,20.48,20.48,0,0,0-4.55-.45,13.62,13.62,0,0,0-6,1.19,9.42,9.42,0,0,0-4,3.71,19.06,19.06,0,0,0-2.25,6.52,56.12,56.12,0,0,0-.72,9.74v9.69h38.86V296a2.27,2.27,0,0,1,.39-1.28,3.13,3.13,0,0,1,1.24-1,7.29,7.29,0,0,1,2.4-.64,30,30,0,0,1,3.92-.2,29.21,29.21,0,0,1,3.83.2,7.22,7.22,0,0,1,2.39.64,3.16,3.16,0,0,1,1.25,1,2.34,2.34,0,0,1,.38,1.28v21.16h22a2.77,2.77,0,0,1,1.38.34,2.47,2.47,0,0,1,1,1.19,9.65,9.65,0,0,1,.62,2.12,17.72,17.72,0,0,1,.24,3.17,11.41,11.41,0,0,1-.86,5.14,2.58,2.58,0,0,1-2.3,1.58H1976.6v49.63q0,9.19,2.58,13.89t9.48,4.69a16.28,16.28,0,0,0,3.88-.44,32,32,0,0,0,3.11-.94c.89-.33,1.67-.64,2.35-.94a4.27,4.27,0,0,1,1.67-.45,1.48,1.48,0,0,1,1.58,1.19,11.9,11.9,0,0,1,.43,1.88,23.83,23.83,0,0,1-.24,7.51,5.47,5.47,0,0,1-1.2,2.47,7.58,7.58,0,0,1-2.2,1.49,15.75,15.75,0,0,1-3.4,1.13,42.59,42.59,0,0,1-4.21.74,32.92,32.92,0,0,1-4.35.3,32.51,32.51,0,0,1-11.59-1.83,18.62,18.62,0,0,1-7.85-5.53,23.18,23.18,0,0,1-4.45-9.39,57.3,57.3,0,0,1-1.39-13.4v-52Z" transform="translate(-47.99 -42)"/>
        <path class="cls-4" d="M2085.25,408.78a2.12,2.12,0,0,1-.77,1.78,5.38,5.38,0,0,1-2.1.89,19.44,19.44,0,0,1-3.93.29,21,21,0,0,1-4-.29,4.66,4.66,0,0,1-2.15-.89,2.25,2.25,0,0,1-.67-1.78v-8.9a42.92,42.92,0,0,1-12.59,9.69,32.49,32.49,0,0,1-14.7,3.46,38.85,38.85,0,0,1-12.3-1.83,26.38,26.38,0,0,1-9.38-5.29,23.75,23.75,0,0,1-6-8.5,28.86,28.86,0,0,1-2.15-11.47,27.32,27.32,0,0,1,3-13.05,25.19,25.19,0,0,1,8.52-9.19,41.2,41.2,0,0,1,13.6-5.49,81.76,81.76,0,0,1,18.09-1.83h11.87v-6.92a35.59,35.59,0,0,0-1.05-9.09,15.91,15.91,0,0,0-3.4-6.58,14.65,14.65,0,0,0-6.08-4,27.51,27.51,0,0,0-9.19-1.33,35.32,35.32,0,0,0-10.48,1.43,55.67,55.67,0,0,0-8.14,3.16c-2.33,1.16-4.27,2.21-5.84,3.17a8,8,0,0,1-3.49,1.43,2.26,2.26,0,0,1-1.34-.4,3.33,3.33,0,0,1-1-1.18,6.49,6.49,0,0,1-.62-2,17.5,17.5,0,0,1-.19-2.72,18.16,18.16,0,0,1,.33-3.9,5.76,5.76,0,0,1,1.63-2.72,21,21,0,0,1,4.45-3,48.89,48.89,0,0,1,7.28-3.16,65.35,65.35,0,0,1,9-2.37,51.71,51.71,0,0,1,9.86-.94,50.18,50.18,0,0,1,15.79,2.17,25.41,25.41,0,0,1,10.53,6.38,24.87,24.87,0,0,1,5.84,10.43,52.15,52.15,0,0,1,1.82,14.53Zm-15.7-40.63h-13.5a49.77,49.77,0,0,0-11.29,1.13,22.85,22.85,0,0,0-8,3.37,13.81,13.81,0,0,0-4.64,5.33,16.5,16.5,0,0,0-1.49,7.17q0,6.93,4.27,11c2.83,2.74,6.81,4.11,11.91,4.11A21.61,21.61,0,0,0,2058.4,397a50,50,0,0,0,11.15-10Z" transform="translate(-47.99 -42)"/>
        <path class="cls-4" d="M2130.05,408.68a2.27,2.27,0,0,1-.38,1.33,2.94,2.94,0,0,1-1.25.94,8.5,8.5,0,0,1-2.39.6,32.33,32.33,0,0,1-3.93.19,31,31,0,0,1-3.82-.19,9.3,9.3,0,0,1-2.45-.6,2.57,2.57,0,0,1-1.24-.94,2.5,2.5,0,0,1-.34-1.33V276.61a2.83,2.83,0,0,1,.34-1.39,2.57,2.57,0,0,1,1.24-1,9.34,9.34,0,0,1,2.45-.59,30.78,30.78,0,0,1,3.82-.2,32,32,0,0,1,3.93.2,8.54,8.54,0,0,1,2.39.59,2.93,2.93,0,0,1,1.25,1,2.56,2.56,0,0,1,.38,1.39Z" transform="translate(-47.99 -42)"/>
        <path class="cls-4" d="M2287,408.68a2.27,2.27,0,0,1-.38,1.33,3,3,0,0,1-1.24.94,8.68,8.68,0,0,1-2.4.6,31.33,31.33,0,0,1-3.83.19,32.26,32.26,0,0,1-3.92-.19,9.22,9.22,0,0,1-2.44-.6,2.85,2.85,0,0,1-1.29-.94,2.2,2.2,0,0,1-.39-1.33V354.6a51,51,0,0,0-1-10.28,24.05,24.05,0,0,0-3.06-8,14.4,14.4,0,0,0-5.36-5.14,15.68,15.68,0,0,0-7.66-1.78q-5.46,0-11,4.35A77.31,77.31,0,0,0,2231,346.5v62.18a2.27,2.27,0,0,1-.38,1.33,3,3,0,0,1-1.29.94,9.32,9.32,0,0,1-2.44.6,38.19,38.19,0,0,1-7.61,0,9.25,9.25,0,0,1-2.49-.6,2.61,2.61,0,0,1-1.25-.94,2.5,2.5,0,0,1-.33-1.33V354.6a46.13,46.13,0,0,0-1.06-10.28,25.72,25.72,0,0,0-3.15-8,14.6,14.6,0,0,0-5.32-5.14,15.4,15.4,0,0,0-7.61-1.78q-5.46,0-11,4.35A73.33,73.33,0,0,0,2175,346.5v62.18a2.27,2.27,0,0,1-.38,1.33,2.94,2.94,0,0,1-1.25.94,8.5,8.5,0,0,1-2.39.6,32.26,32.26,0,0,1-3.92.19,31.21,31.21,0,0,1-3.83-.19,9.22,9.22,0,0,1-2.44-.6,2.56,2.56,0,0,1-1.25-.94,2.5,2.5,0,0,1-.33-1.33v-89a2.89,2.89,0,0,1,.28-1.34,2.69,2.69,0,0,1,1.15-1,6.56,6.56,0,0,1,2.2-.59,41.37,41.37,0,0,1,7,0,5.66,5.66,0,0,1,2.15.59,3.08,3.08,0,0,1,1.1,1,2.47,2.47,0,0,1,.34,1.34v11.76q7.27-8.4,14.12-12.31a27.66,27.66,0,0,1,13.83-3.9,33.49,33.49,0,0,1,9.62,1.28,25.58,25.58,0,0,1,7.52,3.61,23.73,23.73,0,0,1,5.55,5.54,32.25,32.25,0,0,1,3.83,7.17,90.54,90.54,0,0,1,8.18-8.21,50,50,0,0,1,7.47-5.44,30.17,30.17,0,0,1,7-3,25.41,25.41,0,0,1,6.84-.94c5.56,0,10.21,1,14,3a25.74,25.74,0,0,1,9.14,8.06,32.85,32.85,0,0,1,5,11.81,66.63,66.63,0,0,1,1.48,14.29Z" transform="translate(-47.99 -42)"/>
        <path class="cls-4" d="M2396,363.21a68.94,68.94,0,0,1-2.77,20,44.71,44.71,0,0,1-8.29,15.77,37.52,37.52,0,0,1-13.78,10.33A46.6,46.6,0,0,1,2352,413a48.42,48.42,0,0,1-18.53-3.26,34,34,0,0,1-13.16-9.49,40.69,40.69,0,0,1-7.85-15.13,72.42,72.42,0,0,1-2.58-20.17,70.06,70.06,0,0,1,2.72-20,44,44,0,0,1,8.24-15.77,37.23,37.23,0,0,1,13.73-10.28,47.06,47.06,0,0,1,19.25-3.66,48.4,48.4,0,0,1,18.52,3.26,34,34,0,0,1,13.16,9.49,41.29,41.29,0,0,1,7.9,15.13A70.87,70.87,0,0,1,2396,363.21Zm-16.37,1.08a68.5,68.5,0,0,0-1.3-13.64,34.36,34.36,0,0,0-4.3-11.27,21.6,21.6,0,0,0-8.12-7.66,26.14,26.14,0,0,0-12.75-2.82,26.57,26.57,0,0,0-12.12,2.57,22.49,22.49,0,0,0-8.35,7.27,33.08,33.08,0,0,0-4.88,11.12,58.35,58.35,0,0,0-1.59,14,69.08,69.08,0,0,0,1.3,13.74,33,33,0,0,0,4.35,11.22,22,22,0,0,0,8.16,7.61,26.14,26.14,0,0,0,12.75,2.82,26.61,26.61,0,0,0,12.07-2.57,22.5,22.5,0,0,0,8.41-7.22,32.29,32.29,0,0,0,4.83-11.07A60.49,60.49,0,0,0,2379.61,364.29Z" transform="translate(-47.99 -42)"/>
        <path class="cls-4" d="M2435,408.68a2.27,2.27,0,0,1-.38,1.33,2.94,2.94,0,0,1-1.25.94,8.5,8.5,0,0,1-2.39.6,32.33,32.33,0,0,1-3.93.19,31.33,31.33,0,0,1-3.83-.19,9.32,9.32,0,0,1-2.44-.6,2.52,2.52,0,0,1-1.24-.94,2.41,2.41,0,0,1-.34-1.33V276.61a2.73,2.73,0,0,1,.34-1.39,2.52,2.52,0,0,1,1.24-1,9.36,9.36,0,0,1,2.44-.59,31.07,31.07,0,0,1,3.83-.2,32,32,0,0,1,3.93.2,8.54,8.54,0,0,1,2.39.59,2.93,2.93,0,0,1,1.25,1,2.56,2.56,0,0,1,.38,1.39Z" transform="translate(-47.99 -42)"/>
        <path class="cls-4" d="M2544.36,363.21a68.59,68.59,0,0,1-2.78,20A44.53,44.53,0,0,1,2533.3,399a37.52,37.52,0,0,1-13.78,10.33,46.61,46.61,0,0,1-19.2,3.71,48.4,48.4,0,0,1-18.52-3.26,34,34,0,0,1-13.16-9.49,40.69,40.69,0,0,1-7.85-15.13A72.41,72.41,0,0,1,2458.2,365a69.7,69.7,0,0,1,2.73-20,43.83,43.83,0,0,1,8.24-15.77,37.06,37.06,0,0,1,13.73-10.28,47,47,0,0,1,19.24-3.66,48.42,48.42,0,0,1,18.53,3.26,34,34,0,0,1,13.16,9.49,41.29,41.29,0,0,1,7.9,15.13A70.87,70.87,0,0,1,2544.36,363.21ZM2528,364.29a69.24,69.24,0,0,0-1.3-13.64,34.58,34.58,0,0,0-4.3-11.27,21.6,21.6,0,0,0-8.12-7.66,26.14,26.14,0,0,0-12.75-2.82,26.57,26.57,0,0,0-12.12,2.57,22.52,22.52,0,0,0-8.36,7.27,33.06,33.06,0,0,0-4.87,11.12,57.84,57.84,0,0,0-1.6,14,69.06,69.06,0,0,0,1.31,13.74,33.22,33.22,0,0,0,4.34,11.22,22.08,22.08,0,0,0,8.17,7.61,26.14,26.14,0,0,0,12.75,2.82,26.64,26.64,0,0,0,12.07-2.57,22.55,22.55,0,0,0,8.4-7.22,31.92,31.92,0,0,0,4.83-11.07A60.47,60.47,0,0,0,2528,364.29Zm-18.86-88.08a6.4,6.4,0,0,1,1.34-1.78,5.62,5.62,0,0,1,1.87-1.09,12.74,12.74,0,0,1,2.73-.59,33.41,33.41,0,0,1,3.92-.2,22.32,22.32,0,0,1,4.36.35,4.8,4.8,0,0,1,2.34,1,1.71,1.71,0,0,1,.58,1.48,3.32,3.32,0,0,1-.86,1.73l-17.33,23a15.4,15.4,0,0,1-1.39,1.59,4.82,4.82,0,0,1-1.44.93,7.36,7.36,0,0,1-2.1.5,28.56,28.56,0,0,1-3.21.15,14.9,14.9,0,0,1-3.35-.3,4,4,0,0,1-1.77-.79,1.33,1.33,0,0,1-.38-1.29,5.49,5.49,0,0,1,.81-1.87Z" transform="translate(-47.99 -42)"/>
        <path class="cls-4" d="M2639.61,323.76a10.29,10.29,0,0,1-.91,5,2.68,2.68,0,0,1-2.35,1.54H2624a20.17,20.17,0,0,1,4.7,7.85,30,30,0,0,1,1.34,8.95,36.13,36.13,0,0,1-2.4,13.64,27.38,27.38,0,0,1-6.84,10,30.39,30.39,0,0,1-10.58,6.27,40.19,40.19,0,0,1-13.59,2.18,34.6,34.6,0,0,1-10-1.43,20.63,20.63,0,0,1-7.32-3.61,15.32,15.32,0,0,0-2.82,4.05,11.81,11.81,0,0,0-1.1,5.24,6.82,6.82,0,0,0,3.11,5.73,14.73,14.73,0,0,0,8.28,2.48l22.49,1a45.85,45.85,0,0,1,11.78,1.83,28.88,28.88,0,0,1,9.28,4.65,21.21,21.21,0,0,1,6.13,7.41,22.6,22.6,0,0,1,2.2,10.24,28.11,28.11,0,0,1-2.49,11.66,26.78,26.78,0,0,1-7.61,9.74,37.58,37.58,0,0,1-13.07,6.62,64.45,64.45,0,0,1-18.76,2.42A74.36,74.36,0,0,1,2579,445.4a37.83,37.83,0,0,1-12-5,19.18,19.18,0,0,1-6.8-7.56,21.84,21.84,0,0,1-2.1-9.54,26.12,26.12,0,0,1,.76-6.33,23.14,23.14,0,0,1,2.35-5.83,28.7,28.7,0,0,1,3.92-5.29,53,53,0,0,1,5.41-5,17.12,17.12,0,0,1-6.94-6.23,15.47,15.47,0,0,1-2.25-8.1,23.55,23.55,0,0,1,2.4-10.78,35.67,35.67,0,0,1,5.93-8.5,29.31,29.31,0,0,1-4.69-8.26,31.73,31.73,0,0,1-1.72-11.12,35.47,35.47,0,0,1,2.49-13.64,28.93,28.93,0,0,1,6.89-10.18,29.9,29.9,0,0,1,10.58-6.38,39.45,39.45,0,0,1,13.45-2.22,56,56,0,0,1,7.32.44,50.29,50.29,0,0,1,6.37,1.24h26a2.59,2.59,0,0,1,2.44,1.63A11.55,11.55,0,0,1,2639.61,323.76Zm-16.75,93.92a10.09,10.09,0,0,0-4.55-8.85q-4.54-3.12-12.3-3.31l-22.31-.79a40.39,40.39,0,0,0-5,4.69,25.16,25.16,0,0,0-3.11,4.25,14,14,0,0,0-1.58,4,18.68,18.68,0,0,0-.43,4.05q0,6.42,6.31,9.74t17.62,3.31a42.7,42.7,0,0,0,12-1.44,22.71,22.71,0,0,0,7.8-3.8,13.86,13.86,0,0,0,4.26-5.44A16.37,16.37,0,0,0,2622.86,417.68Zm-8-70.49q0-9.09-4.83-14.19t-13.74-5.09a18.83,18.83,0,0,0-8,1.58,15.78,15.78,0,0,0-5.65,4.35,18.64,18.64,0,0,0-3.35,6.38,25.61,25.61,0,0,0-1.1,7.56q0,8.81,4.83,13.84t13.55,5.05a19.72,19.72,0,0,0,8.13-1.54,15.26,15.26,0,0,0,5.7-4.25,18,18,0,0,0,3.35-6.28A25,25,0,0,0,2614.91,347.19Z" transform="translate(-47.99 -42)"/>
        <path class="cls-4" d="M2677.52,289.65c0,3.83-.71,6.43-2.11,7.81s-4,2.08-7.75,2.08-6.24-.67-7.61-2-2.06-3.9-2.06-7.66.7-6.42,2.1-7.81,4-2.07,7.76-2.07,6.23.67,7.61,2S2677.52,285.9,2677.52,289.65Zm-1.82,119a2.2,2.2,0,0,1-.39,1.33,2.9,2.9,0,0,1-1.24.94,8.5,8.5,0,0,1-2.39.6,32.33,32.33,0,0,1-3.93.19,31.33,31.33,0,0,1-3.83-.19,9.32,9.32,0,0,1-2.44-.6,2.52,2.52,0,0,1-1.24-.94,2.41,2.41,0,0,1-.34-1.33v-89a2.32,2.32,0,0,1,1.58-2.28,9.36,9.36,0,0,1,2.44-.59,31.07,31.07,0,0,1,3.83-.2,32,32,0,0,1,3.93.2,8.54,8.54,0,0,1,2.39.59,2.9,2.9,0,0,1,1.24,1,2.32,2.32,0,0,1,.39,1.29Z" transform="translate(-47.99 -42)"/>
        <path class="cls-4" d="M2766.83,395.14c0,1.12,0,2.09-.1,2.91a10.42,10.42,0,0,1-.33,2.08,8.16,8.16,0,0,1-.57,1.48,9.77,9.77,0,0,1-1.54,1.88,23.33,23.33,0,0,1-4.07,3.06,38.6,38.6,0,0,1-6.46,3.27,47.54,47.54,0,0,1-7.8,2.32,42.26,42.26,0,0,1-8.71.89,40.58,40.58,0,0,1-16.46-3.16,31.11,31.11,0,0,1-12-9.25,42.51,42.51,0,0,1-7.37-14.93,74.25,74.25,0,0,1-2.54-20.41q0-13.14,3.11-22.59a43.18,43.18,0,0,1,8.52-15.47,33.71,33.71,0,0,1,12.74-9,42.49,42.49,0,0,1,15.84-2.91,39.66,39.66,0,0,1,8,.79,43.33,43.33,0,0,1,7.13,2.07,31.81,31.81,0,0,1,5.8,3,22.82,22.82,0,0,1,3.68,2.87,12.61,12.61,0,0,1,1.58,1.88,6.62,6.62,0,0,1,.72,1.63,9.79,9.79,0,0,1,.38,2.12c.06.79.1,1.78.1,3,0,2.57-.29,4.36-.87,5.39a2.46,2.46,0,0,1-2.1,1.53,5.4,5.4,0,0,1-3.3-1.63,54.21,54.21,0,0,0-4.74-3.61,35.87,35.87,0,0,0-6.94-3.61,25.73,25.73,0,0,0-9.62-1.63q-11.4,0-17.47,9t-6.08,26.25a64.3,64.3,0,0,0,1.58,15.08,31.7,31.7,0,0,0,4.64,10.82,19.32,19.32,0,0,0,7.52,6.48,23.29,23.29,0,0,0,10.19,2.12,23.86,23.86,0,0,0,9.57-1.78,38.93,38.93,0,0,0,7.13-3.9c2-1.42,3.71-2.7,5.08-3.86s2.44-1.73,3.21-1.73a1.76,1.76,0,0,1,1.14.4,3.07,3.07,0,0,1,.82,1.33,10.69,10.69,0,0,1,.48,2.38C2766.78,392.68,2766.83,393.82,2766.83,395.14Z" transform="translate(-47.99 -42)"/>
        <path class="cls-4" d="M2866.29,363.21a68.59,68.59,0,0,1-2.78,20,44.53,44.53,0,0,1-8.28,15.77,37.52,37.52,0,0,1-13.78,10.33,46.6,46.6,0,0,1-19.19,3.71,48.42,48.42,0,0,1-18.53-3.26,34,34,0,0,1-13.16-9.49,40.69,40.69,0,0,1-7.85-15.13,72.42,72.42,0,0,1-2.58-20.17,69.7,69.7,0,0,1,2.72-20,44,44,0,0,1,8.24-15.77,37.15,37.15,0,0,1,13.73-10.28,47.06,47.06,0,0,1,19.25-3.66,48.4,48.4,0,0,1,18.52,3.26,34,34,0,0,1,13.16,9.49,41.29,41.29,0,0,1,7.9,15.13A70.87,70.87,0,0,1,2866.29,363.21Zm-16.37,1.08a68.5,68.5,0,0,0-1.3-13.64,34.36,34.36,0,0,0-4.3-11.27,21.6,21.6,0,0,0-8.12-7.66,26.14,26.14,0,0,0-12.75-2.82,26.57,26.57,0,0,0-12.12,2.57,22.49,22.49,0,0,0-8.35,7.27,33.08,33.08,0,0,0-4.88,11.12,58.33,58.33,0,0,0-1.6,14,69.06,69.06,0,0,0,1.31,13.74,33,33,0,0,0,4.35,11.22,22,22,0,0,0,8.16,7.61,26.14,26.14,0,0,0,12.75,2.82,26.61,26.61,0,0,0,12.07-2.57,22.47,22.47,0,0,0,8.4-7.22,32.12,32.12,0,0,0,4.84-11.07A60.49,60.49,0,0,0,2849.92,364.29Z" transform="translate(-47.99 -42)"/>
    </g>
    <g id="La_Luz" data-name="La Luz">
        <path class="cls-5" d="M1048.72,465.31H1151.9V833.12h181.91v86.22H1048.72Z" transform="translate(-47.99 -42)"/>
        <path class="cls-5" d="M1670.47,839.85c0,31,1.35,61.3,5.43,79.49h-93l-6.11-33h-2c-21.72,26.28-55.66,40.42-95,40.42-67.2,0-107.24-48.5-107.24-101,0-85.56,77.38-126,194.8-126v-4c0-18.19-9.5-43.11-60.41-43.11-33.94,0-69.91,11.45-91.63,24.92l-19-66c23.08-12.8,68.56-29.64,129-29.64,110.64,0,145.26,64.67,145.26,142.81Zm-99.78-76.12c-54.3,0-96.39,12.8-96.39,51.87,0,26.27,17.65,39.07,40.73,39.07,25.11,0,46.83-16.84,53.62-37.72a72.78,72.78,0,0,0,2-17.52Z" transform="translate(-47.99 -42)"/>
        <path class="cls-5" d="M1893.78,465.31H1997V833.12h181.91v86.22H1893.78Z" transform="translate(-47.99 -42)"/>
        <path class="cls-5" d="M2542,813.58c0,43.11,1.36,78.14,2.72,105.76h-89.6l-4.75-46.48h-2c-12.89,20.21-44.12,53.89-103.85,53.89-67.88,0-116.75-41.76-116.75-143.48V589.93h103.18V767.1c0,47.83,15.61,76.79,52.26,76.79,28.51,0,45.48-19.53,51.59-35.7q4.06-9.09,4.07-22.23v-196H2542Z" transform="translate(-47.99 -42)"/>
        <path class="cls-5" d="M2598.33,860.74l104.54-130c19-21.55,33.93-38.4,52.26-57.93v-1.35H2609.87V589.93h271.51v62L2781.6,776.53c-18.32,20.88-35.29,41.77-54.3,60v1.35h159.51v81.51H2598.33Z" transform="translate(-47.99 -42)"/>
    </g>
</svg>