<svg xmlns="http://www.w3.org/2000/svg" viewBox="0 0 1042 999">
    <defs>
        <style>
            .cls-1{fill:#22bfc7;}
            .cls-2{fill:#20a7ad;}
            .cls-3{fill:#fff;}
            .cls-4{fill:#e96a5e;}
            .cls-5{fill:#bbccd0;}
            .cls-6{fill:#1e556c;}
            .cls-7{fill:#1a4457;}
            .cls-8{fill:#d3d5d5;}
            .cls-9{fill:#d46153;}
            .cls-10,
            .cls-15,
            .cls-27{fill:none;}
            .cls-10{stroke:#434d53;}
            .cls-10,
            .cls-15{stroke-width:2px;}
            .cls-11{fill:#434d53;}
            .cls-12{fill:#20a7b0;}
            .cls-13{fill:#ef6d60;}
            .cls-14{fill:#2a5164;}
            .cls-15{stroke:#ef6d60;}
            .cls-16{fill:#5e777f;}
            .cls-17{fill:#fdcec7;}
            .cls-18{fill:#97abb1;}
            .cls-19{fill:#ebfefe;}
            .cls-20{fill:#adc0c7;}
            .cls-21{fill:#91d1d9;}
            .cls-22{fill:#709baf;}
            .cls-23{fill:#214c5e;}
            .cls-24{fill:#d36156;}
            .cls-25{fill:#daaf90;}
            .cls-26{fill:#ebd0bf;}
            .cls-27{stroke:#cba790;}
            .cls-28{fill:#e7bcac;}
            .cls-29{fill:#22bfc5;}
            .cls-30{fill:#333537;}
            .cls-31{fill:#e1c09d;}
            .cls-32{fill:#ae8e72;}
            .cls-33{fill:#696868;}
        </style>
    </defs>
    <g id="aguja">
        <g id="Elipse_2" data-name="Elipse 2">
            <ellipse class="cls-1" cx="181.5" cy="267" rx="108.5" ry="108"/>
        </g>
        <g id="Forma_14" data-name="Forma 14">
            <path class="cls-2" d="M249,255,148,355s49.8,53.6,50,54c51.2,3.6,106.2-37.2,110-96C307.2,312,249,255,249,255Z" transform="translate(-19 -35)"/>
        </g>
        <g id="Forma_4" data-name="Forma 4">
            <polygon class="cls-3" points="206 230 165 270 165 273 176 283 179 282 218 242 206 230"/>
        </g>
        <g id="Forma_5" data-name="Forma 5">
            <polygon class="cls-4" points="176 259 165 270 165 273 176 283 179 282 189 272 176 259"/>
        </g>
        <g id="Forma_6" data-name="Forma 6">
            <polygon class="cls-3" points="202 222 200 224 224 247 226 245 202 222"/>
        </g>
        <g id="Forma_7" data-name="Forma 7">
            <rect class="cls-3" x="245.09" y="244.89" width="2.83" height="21.21" transform="translate(-127.47 214.14) rotate(-45)"/>
        </g>
        <g id="Forma_8" data-name="Forma 8">
            <rect class="cls-3" x="229.81" y="256.64" width="18.38" height="12.73" transform="translate(-134.97 211.03) rotate(-45)"/>
        </g>
        <g id="Forma_9" data-name="Forma 9">
            <polygon points="166 275 155 291 157 293 173 282 166 275"/>
        </g>
        <g id="Forma_10" data-name="Forma 10">
            <polygon class="cls-3" points="167 274 165 275 174 284 175 282 167 274"/>
        </g>
        <g id="Forma_11" data-name="Forma 11">
            <rect class="cls-3" x="141.7" y="339.79" width="39.6" height="1.41" transform="translate(-212.47 178.93) rotate(-45)"/>
        </g>
        <g id="Forma_12" data-name="Forma 12">
            <rect class="cls-5" x="229.09" y="262.31" width="2.83" height="18.38" transform="translate(-143.47 207.51) rotate(-45)"/>
        </g>
        <g id="Forma_13" data-name="Forma 13">
            <rect class="cls-5" x="244.29" y="249.64" width="1.41" height="12.73" transform="translate(-128.26 213.21) rotate(-45)"/>
        </g>
        <g id="Forma_66" data-name="Forma 66">
            <polygon points="173 275 172 276 179 282 180 281 173 275"/>
        </g>
        <g id="Forma_66-2" data-name="Forma 66">
            <polygon points="180 268 179 269 186 275 187 274 180 268"/>
        </g>
        <g id="Forma_66-3" data-name="Forma 66">
            <rect x="209.79" y="293.26" width="1.41" height="8.49" transform="translate(-167.71 200.97) rotate(-45)"/>
        </g>
        <g id="Forma_66-4" data-name="Forma 66">
            <rect x="216.79" y="286.26" width="1.41" height="8.49" transform="translate(-160.71 203.87) rotate(-45)"/>
        </g>
        <g id="Forma_66-5" data-name="Forma 66">
            <rect x="224.79" y="278.26" width="1.41" height="8.49" transform="translate(-152.71 207.18) rotate(-45)"/>
        </g>
        <g id="Forma_67" data-name="Forma 67">
            <rect x="198.79" y="307.67" width="1.41" height="5.66" transform="translate(-180.12 197.01) rotate(-45)"/>
        </g>
        <g id="Forma_67-2" data-name="Forma 67">
            <rect x="213.79" y="292.67" width="1.41" height="5.66" transform="translate(-165.13 203.24) rotate(-45)"/>
        </g>
        <g id="Forma_67-3" data-name="Forma 67">
            <rect x="206.79" y="299.67" width="1.41" height="5.66" transform="translate(-172.12 200.31) rotate(-45)"/>
        </g>
        <g id="Forma_67-4" data-name="Forma 67">
            <rect x="220.79" y="284.67" width="1.41" height="5.66" transform="translate(-157.42 205.84) rotate(-45)"/>
        </g>
    </g>
    <g id="corazon">
        <g id="Elipse_1" data-name="Elipse 1">
            <ellipse class="cls-6" cx="109" cy="503.5" rx="109" ry="108.5"/>
        </g>
        <g id="Forma_3" data-name="Forma 3">
            <path class="cls-7" d="M177,495,74,536H51l3,7s98,98.6,100,100c36.6-7,77.8-47.4,80-91Z" transform="translate(-19 -35)"/>
        </g>
        <g id="Forma_1" data-name="Forma 1">
            <path class="cls-4" d="M183,504c-2.25-4-6.25-18-28-21-16-1-27,14-27,14s-7.75-14.25-27-13-26.75,14.25-28,20c-16,50.25,55,90,55,90S200,556.5,183,504Z" transform="translate(-19 -35)"/>
        </g>
        <g id="Forma_2" data-name="Forma 2">
            <polygon class="cls-3" points="123 500 114 521 98 467 81 500 33 500 33 507 86 507 96 485 112 540 127 507 184 507 184 500 123 500"/>
        </g>
    </g>
    <g id="pastilla">
        <g id="circulo">
            <ellipse class="cls-6" cx="387.5" cy="111" rx="108.5" ry="108"/>
        </g>
        <g id="Forma_15" data-name="Forma 15">
            <path class="cls-7" d="M404,102l-30,97s52,51.33,53,53c28.67-5,58.33-25,74-53C501,198,404,102,404,102Z" transform="translate(-19 -35)"/>
        </g>
        <g id="Forma_16" data-name="Forma 16">
            <path class="cls-3" d="M387,91c-15.86-.14-22,15-22,15v41h41V105S402.86,91.14,387,91Z" transform="translate(-19 -35)"/>
        </g>
        <g id="Forma_17" data-name="Forma 17">
            <path class="cls-4" d="M365,147v40s1.86,15,19,15,22-11,22-11V147Z" transform="translate(-19 -35)"/>
        </g>
        <g id="Elipse_3" data-name="Elipse 3">
            <ellipse class="cls-3" cx="399.5" cy="133" rx="29.5" ry="29"/>
        </g>
        <g id="Forma_18" data-name="Forma 18">
            <path class="cls-8" d="M443,153c-1,.43-51,22.14-52,23s1.29,6.71,3,6,51.14-23.57,52-24S444,152.57,443,153Z" transform="translate(-19 -35)"/>
        </g>
    </g>
    <g id="tool">
        <g id="circulo-2" data-name="circulo">
            <ellipse class="cls-4" cx="641.5" cy="108" rx="108.5" ry="108"/>
        </g>
        <g id="Forma_19" data-name="Forma 19">
            <path class="cls-9" d="M648,74l-19,3-2,13-12,3-3,18,86,88a35.44,35.44,0,0,1-11,9c-6.33,3.16-15,4-15,4l-51-53-14,14s72.5,73.25,75,75c27.75-3,65.25-28.25,77-62C756.5,184,648,74,648,74Z" transform="translate(-19 -35)"/>
        </g>
        <g id="Elipse_4" data-name="Elipse 4">
            <circle class="cls-3" cx="592" cy="129" r="10"/>
        </g>
        <g id="Elipse_5" data-name="Elipse 5">
            <circle class="cls-10" cx="611" cy="164" r="6" transform="translate(-34.46 40.88) rotate(-7.02)"/>
        </g>
        <g id="Forma_20" data-name="Forma 20">
            <path class="cls-11" d="M703,165c-4.4-5.8-17.08-18.5-20-22,.83-.25,7.25-8,3-16-1.75-2.75-13-16-13-16l-2,3s8,9.25,12,14-3,15-3,15-8.92,4.58-13,2-16-11-16-11l-3,2s10.42,7.42,16,11c7.33,4.33,15.17.5,17-1,1,.92,14.2,15,19,21s4.2,21.6-4,32-29.94,12.62-35,9-42-39-42-39l-3,4s32.6,32,41,38,30.6,5,42-10S707.4,170.8,703,165Z" transform="translate(-19 -35)"/>
        </g>
        <g id="Forma_21" data-name="Forma 21">
            <path class="cls-3" d="M629,89c-1.38-1.5.62-6.5,2-10s10-4,10-4V72a22.17,22.17,0,0,0-10,2c-5.12,2.38-6,14-6,14s-9.38-.63-12,3-4,12-4,12h5s-.25-7.25,3-9,6.75-1.25,9-1c1.25,19.5,22,43,22,43l2-3s-21.75-26.75-20-41c30,6.88,40,21,40,21l3-2S656.25,92.62,629,89Z" transform="translate(-19 -35)"/>
        </g>
        <g id="Forma_22" data-name="Forma 22">
            <path class="cls-11" d="M614,103c-.88-.25-4.38-1.12-5,0s-1,7.12,0,8,4.25.62,5,0S614.88,103.25,614,103Z" transform="translate(-19 -35)"/>
        </g>
        <g id="Forma_23" data-name="Forma 23">
            <path class="cls-11" d="M649,71c-.62-.75-7.38-.38-8,0s-.88,4.38,0,5,7.25.62,8,0S649.62,71.75,649,71Z" transform="translate(-19 -35)"/>
        </g>
        <g id="Forma_24" data-name="Forma 24">
            <path class="cls-3" d="M670,111h-2s9.38,12.62,2,21c-7.12,7.75-21-1-21-1v2s15.25,9.12,23,0S670,111,670,111Z" transform="translate(-19 -35)"/>
        </g>
    </g>
    <g id="botiquin">
        <g id="copiar_2" data-name="copiar 2">
            <ellipse class="cls-1" cx="852.5" cy="257" rx="108.5" ry="108"/>
        </g>
        <g id="Forma_25" data-name="Forma 25">
            <path class="cls-12" d="M928,257H915l-18-17-2,17-84,86s52,50.67,58,56c43.33,5,103.67-33,108-91C974.33,305,928,257,928,257Z" transform="translate(-19 -35)"/>
        </g>
        <g id="Forma_26" data-name="Forma 26">
            <path class="cls-3" d="M935,264c-1.58-2.42-2.75-6.92-7-7s-111-.4-116,0-7,9-7,9-.28,59.55,0,71c1.28,3.65,2.6,5.4,7,7,6.8,1,116.25-.25,113,0-1.65.25,9.25-.92,10-8C935.15,329.32,935.38,268.82,935,264Z" transform="translate(-19 -35)"/>
        </g>
        <g id="Elipse_6" data-name="Elipse 6">
            <ellipse class="cls-13" cx="851" cy="266" rx="29" ry="28"/>
        </g>
        <g id="Forma_27" data-name="Forma 27">
            <polygon class="cls-3" points="870 261 863 251 857 254 857 247 845 247 845 255 837 251 832 262 840 265 831 270 838 279 845 275 845 283 856 283 856 275 863 280 869 271 863 266 870 261"/>
        </g>
        <g id="Forma_28" data-name="Forma 28">
            <rect class="cls-11" x="807" y="308" width="13" height="3"/>
        </g>
        <g id="Forma_29" data-name="Forma 29">
            <rect class="cls-11" x="883" y="308" width="11" height="3"/>
        </g>
        <g id="Forma_30" data-name="Forma 30">
            <rect class="cls-11" x="800" y="221" width="13" height="2"/>
        </g>
        <g id="Forma_31" data-name="Forma 31">
            <rect class="cls-11" x="892" y="221" width="10" height="2"/>
        </g>
        <g id="Forma_32" data-name="Forma 32">
            <polygon class="cls-14" points="878 219 878 204 876 201 826 201 823 203 823 219 820 219 820 223 831 223 831 219 829 219 829 208 830 207 871 207 873 208 873 219 870 219 870 222 881 222 881 219 878 219"/>
        </g>
        <g id="Elipse_7" data-name="Elipse 7">
            <path class="cls-13" d="M869,285a2,2,0,1,0,2,2A2,2,0,0,0,869,285Z" transform="translate(-19 -35)"/>
        </g>
        <g id="Forma_33" data-name="Forma 33">
            <rect class="cls-13" x="850" y="254" width="1" height="25"/>
        </g>
        <g id="Forma_34" data-name="Forma 34">
            <path class="cls-15" d="M870.07,308.69a2.22,2.22,0,0,0,.27-1.65Zm-.63,3.89.63-3.89c-.58,1.06-1.69,1.92-1.69,3Zm-2.63-21.06c-1.12,1.12-.43,3.44,4.57,6.06.74.86-5.88,4-2.38,7.42a4.33,4.33,0,0,1,1.34,2l2.29-14C870.28,290.09,867.94,290.39,866.81,291.52Z" transform="translate(-19 -35)"/>
        </g>
    </g>
    <g id="vacuna">
        <g id="circulo-3" data-name="circulo">
            <ellipse class="cls-6" cx="933.5" cy="501" rx="108.5" ry="108"/>
        </g>
        <g id="Forma_42" data-name="Forma 42">
            <path class="cls-7" d="M903,591l-6,13s38.2,36.6,40,38c5.2,1.6,16.6,2,19,1C955.6,642.8,903,591,903,591Z" transform="translate(-19 -35)"/>
        </g>
        <g id="Forma_43" data-name="Forma 43">
            <path class="cls-7" d="M1060,521l-51-49L901,582l63,61s35.2-.2,70-36S1060,521,1060,521Z" transform="translate(-19 -35)"/>
        </g>
        <g id="Forma_35" data-name="Forma 35">
            <path class="cls-13" d="M1006,469c-3.6-4-10-1-10-1l-30,31-5,1-7,8h-4l1,3,12,13,5,1,1-3,7-8,1-4,31-30A9.38,9.38,0,0,0,1006,469Z" transform="translate(-19 -35)"/>
        </g>
        <g id="Forma_36" data-name="Forma 36">
            <polygon class="cls-3" points="933 477 884 526 876 537 876 541 880 546 885 545 896 538 945 489 933 477"/>
        </g>
        <g id="Forma_37" data-name="Forma 37">
            <polygon class="cls-16" points="935 479 899 514 915 514 943 486 935 479"/>
        </g>
        <g id="Forma_38" data-name="Forma 38">
            <polygon class="cls-17" points="900 514 886 527 879 538 878 540 881 543 885 542 895 535 915 514 900 514"/>
        </g>
        <g id="Forma_39" data-name="Forma 39">
            <polygon class="cls-18" points="935 481 902 514 905 514 937 482 935 481"/>
        </g>
        <g id="Forma_40" data-name="Forma 40">
            <polygon class="cls-3" points="902 514 893 523 896 523 905 514 902 514"/>
        </g>
        <g id="Forma_41" data-name="Forma 41">
            <path class="cls-13" d="M899,586s-6.8,9.6-7,12a6.18,6.18,0,0,0,6,6s5.8,0,6-5C904.2,595.4,899,586,899,586Z" transform="translate(-19 -35)"/>
        </g>
    </g>
    <g id="termometro">
        <g id="circulo-4" data-name="circulo">
            <ellipse class="cls-1" cx="858.5" cy="736" rx="108.5" ry="108"/>
        </g>
        <g id="Forma_50" data-name="Forma 50">
            <path class="cls-2" d="M985,779l-52-53L824,826l55,54s43.6.4,76-33C987.2,811.8,985,779,985,779Z" transform="translate(-19 -35)"/>
        </g>
        <g id="Forma_44" data-name="Forma 44">
            <path class="cls-19" d="M917,716c-3.33,4-74,75-74,75v7s-21.33,20-22,22c.33,3.33,3.67,7,8,6,3-2.33,21-21,21-21h8s72-72.67,74-75C935,724.33,922.67,711.67,917,716Z" transform="translate(-19 -35)"/>
        </g>
        <g id="Forma_44_2" data-name="Forma 44 2">
            <path class="cls-20" d="M926.9,718.47c-28.33,29.47-94.88,95-104,105.54a6.27,6.27,0,0,0,6.14,2c3-2.33,21-21,21-21h8s72-72.67,74-75C933.62,726.94,930.76,721.83,926.9,718.47Z" transform="translate(-19 -35)"/>
        </g>
        <g id="Forma_45" data-name="Forma 45">
            <path class="cls-7" d="M836,808c-2.75,2-11.5,10.75-13,13-1.25,3.25,1.75,4.25,4,4,1-.75,12.75-11.25,14-13C841.25,806.5,840,806.25,836,808Z" transform="translate(-19 -35)"/>
        </g>
        <g id="Forma_48" data-name="Forma 48">
            <polygon class="cls-21" points="902 684 897 684 826 755 826 757 832 761 903 690 905 687 902 684"/>
        </g>
        <g id="Forma_49" data-name="Forma 49">
            <polygon class="cls-22" points="905 687 832 761 839 767 841 766 910 696 910 691 905 687"/>
            </g>
        <g id="Forma_68" data-name="Forma 68">
            <rect class="cls-23" x="854.59" y="786.34" width="2.83" height="11.31" transform="translate(-328.31 802.25) rotate(-45)"/>
        </g>
        <g id="Forma_68-2" data-name="Forma 68">
            <rect class="cls-23" x="867.59" y="773.34" width="2.83" height="11.31" transform="translate(-315.31 807.64) rotate(-45)"/>
        </g>
        <g id="Forma_68-3" data-name="Forma 68">
            <rect class="cls-23" x="879.59" y="761.34" width="2.83" height="11.31" transform="translate(-303.31 812.61) rotate(-45)"/>
        </g>
        <g id="Forma_68-4" data-name="Forma 68">
            <rect class="cls-23" x="891.59" y="749.34" width="2.83" height="11.31" transform="translate(-291.31 817.56) rotate(-45)"/>
        </g>
        <g id="Forma_68-5" data-name="Forma 68">
            <rect class="cls-23" x="904.59" y="736.34" width="2.83" height="11.31" transform="translate(-278.31 822.95) rotate(-45)"/>
        </g>
        <g id="Forma_68-6" data-name="Forma 68">
            <rect class="cls-23" x="917.59" y="723.34" width="2.83" height="11.31" transform="translate(-265.31 828.35) rotate(-45)"/>
        </g>
        <g id="Forma_46" data-name="Forma 46">
            <rect class="cls-13" x="833.25" y="789.29" width="49.5" height="1.41" transform="translate(-326.31 803.08) rotate(-45)"/>
        </g>
        <g id="Forma_47" data-name="Forma 47">
            <rect class="cls-7" x="864.77" y="749.29" width="66.47" height="1.41" transform="translate(-286.31 819.65) rotate(-45)"/>
        </g>
    </g>
    <g id="curita">
        <g id="circulo-5" data-name="circulo">
            <ellipse class="cls-13" cx="652.5" cy="891" rx="108.5" ry="108"/>
        </g>
        <g id="Forma_55" data-name="Forma 55">
            <path class="cls-24" d="M724,885l-92,95,55,53s30.78-1.19,63-32c27.94-28.18,29-62,29-62Z" transform="translate(-19 -35)"/>
        </g>
        <g id="Forma_53" data-name="Forma 53">
            <path class="cls-25" d="M722,950c-3.67-3.67-77.67-76.33-81-79a11.33,11.33,0,0,0-10,1c-2.67,1.67-14.67,13.67-15,17-.67,2.67.33,9.33,2,11s77,77.33,80,80,11.33,1,14,0,14-13.67,14-16S725.67,953.67,722,950Z" transform="translate(-19 -35)"/>
        </g>
        <g id="Forma_54" data-name="Forma 54">
            <rect class="cls-26" x="659.69" y="901.96" width="22.63" height="48.08" transform="translate(-477.25 710.69) rotate(-45)"/>
            <rect class="cls-27" x="659.69" y="901.96" width="22.63" height="48.08" transform="translate(-477.25 710.69) rotate(-45)"/>
        </g>
        <g id="Elipse_8" data-name="Elipse 8">
            <path class="cls-3" d="M624,886a3,3,0,1,0,3,3A3,3,0,0,0,624,886Z" transform="translate(-19 -35)"/>
        </g>
        <g id="Elipse_9" data-name="Elipse 9">
            <ellipse class="cls-3" cx="698.5" cy="918" rx="2.5" ry="3"/>
        </g>
        <g id="Elipse_10" data-name="Elipse 10">
            <path class="cls-3" d="M634,876a3,3,0,1,0,3,3A3,3,0,0,0,634,876Z" transform="translate(-19 -35)"/>
        </g>
        <g id="Elipse_11" data-name="Elipse 11">
            <ellipse class="cls-3" cx="642" cy="862.5" rx="3" ry="2.5"/>
        </g>
        <g id="Elipse_12" data-name="Elipse 12">
            <path class="cls-3" d="M627,900a3,3,0,1,0,3,3A3,3,0,0,0,627,900Z" transform="translate(-19 -35)"/>
        </g>
        <g id="Elipse_13" data-name="Elipse 13">
            <circle class="cls-3" cx="628" cy="848" r="3"/>
        </g>
        <g id="Elipse_14" data-name="Elipse 14">
            <circle class="cls-3" cx="619.5" cy="868.5" r="2.5"/>
        </g>
        <g id="Elipse_15" data-name="Elipse 15">
            <circle class="cls-3" cx="643.5" cy="872.5" r="2.5"/>
        </g>
        <g id="Elipse_16" data-name="Elipse 16">
            <path class="cls-3" d="M636.5,889a3,3,0,1,0,2.5,3A2.78,2.78,0,0,0,636.5,889Z" transform="translate(-19 -35)"/>
        </g>
        <g id="Elipse_17" data-name="Elipse 17">
            <ellipse class="cls-3" cx="623" cy="880.5" rx="2" ry="2.5"/>
        </g>
        <g id="Elipse_18" data-name="Elipse 18">
            <circle class="cls-3" cx="629.5" cy="858.5" r="2.5"/>
        </g>
        <g id="Elipse_19" data-name="Elipse 19">
            <circle class="cls-3" cx="632.5" cy="881.5" r="2.5"/>
        </g>
        <g id="Elipse_20" data-name="Elipse 20">
            <path class="cls-3" d="M702,935a3,3,0,1,0,3,3A3,3,0,0,0,702,935Z" transform="translate(-19 -35)"/>
        </g>
        <g id="Elipse_21" data-name="Elipse 21">
            <path class="cls-3" d="M650.5,903a3,3,0,1,0,2.5,3A2.78,2.78,0,0,0,650.5,903Z" transform="translate(-19 -35)"/>
        </g>
        <g id="Elipse_22" data-name="Elipse 22">
            <ellipse class="cls-3" cx="663" cy="921.5" rx="3" ry="2.5"/>
        </g>
        <g id="Elipse_23" data-name="Elipse 23">
            <path class="cls-3" d="M704,947a2.54,2.54,0,1,0,3,2.5A2.78,2.78,0,0,0,704,947Z" transform="translate(-19 -35)"/>
        </g>
        <g id="Elipse_24" data-name="Elipse 24">
            <circle class="cls-3" cx="679.5" cy="937.5" r="2.5"/>
        </g>
        <g id="Elipse_25" data-name="Elipse 25">
            <circle class="cls-3" cx="673.5" cy="911.5" r="2.5"/>
        </g>
        <g id="Elipse_26" data-name="Elipse 26">
            <circle class="cls-3" cx="699.5" cy="928.5" r="2.5"/>
        </g>
        <g id="Elipse_27" data-name="Elipse 27">
            <circle class="cls-3" cx="674.5" cy="923.5" r="2.5"/>
        </g>
        <g id="Elipse_28" data-name="Elipse 28">
            <path class="cls-3" d="M708.5,971a3,3,0,1,0,2.5,3A2.78,2.78,0,0,0,708.5,971Z" transform="translate(-19 -35)"/>
        </g>
        <g id="Elipse_29" data-name="Elipse 29">
            <ellipse class="cls-3" cx="688.5" cy="928" rx="2.5" ry="3"/>
        </g>
        <g id="Forma_51" data-name="Forma 51">
            <path class="cls-28" d="M726,886c-.67-2.33-13-13.67-16-15s-11.67-.33-15,4c-2.33,2.33-72.33,72.67-76,76s-3,13-2,16,14.67,15.33,18,15,10-.67,14-5c4.33-4,73.33-74,75-77C728,895.33,726.67,888.33,726,886Z" transform="translate(-19 -35)"/>
        </g>
        <g id="Forma_52" data-name="Forma 52">
            <polygon class="cls-26" points="662 866 659 867 627 899 627 903 640 915 644 914 676 883 676 880 662 866"/>
            <polygon class="cls-27" points="662 866 659 867 627 899 627 903 640 915 644 914 676 883 676 880 662 866"/>
        </g>
        <g id="Elipse_30" data-name="Elipse 30">
            <path class="cls-3" d="M708.5,876c-1.38,0-2.5,1.57-2.5,3.5s1.12,3.5,2.5,3.5,2.5-1.57,2.5-3.5S709.88,876,708.5,876Z" transform="translate(-19 -35)"/>
        </g>
        <g id="Elipse_31" data-name="Elipse 31">
            <path class="cls-3" d="M624,961a3,3,0,1,0,3,3A3,3,0,0,0,624,961Z" transform="translate(-19 -35)"/>
        </g>
        <g id="Elipse_32" data-name="Elipse 32">
            <path class="cls-3" d="M718.5,886a3,3,0,1,0,2.5,3A2.78,2.78,0,0,0,718.5,886Z" transform="translate(-19 -35)"/>
        </g>
        <g id="Elipse_33" data-name="Elipse 33">
            <path class="cls-3" d="M633.5,970a3,3,0,1,0,2.5,3A2.78,2.78,0,0,0,633.5,970Z" transform="translate(-19 -35)"/>
        </g>
        <g id="Elipse_34" data-name="Elipse 34">
            <path class="cls-3" d="M697.5,877a3,3,0,1,0,2.5,3A2.78,2.78,0,0,0,697.5,877Z" transform="translate(-19 -35)"/>
        </g>
        <g id="Elipse_35" data-name="Elipse 35">
            <path class="cls-3" d="M646,967a3,3,0,1,0,3,3A3,3,0,0,0,646,967Z" transform="translate(-19 -35)"/>
        </g>
        <g id="Elipse_36" data-name="Elipse 36">
            <path class="cls-3" d="M707.5,887a3,3,0,1,0,2.5,3A2.78,2.78,0,0,0,707.5,887Z" transform="translate(-19 -35)"/>
        </g>
        <g id="Elipse_37" data-name="Elipse 37">
            <path class="cls-3" d="M636.5,958a3,3,0,1,0,2.5,3A2.78,2.78,0,0,0,636.5,958Z" transform="translate(-19 -35)"/>
        </g>
        <g id="Elipse_38" data-name="Elipse 38">
            <ellipse class="cls-3" cx="697.5" cy="865" rx="2.5" ry="3"/>
        </g>
        <g id="Elipse_39" data-name="Elipse 39">
            <path class="cls-3" d="M627.5,948a3,3,0,1,0,2.5,3A2.78,2.78,0,0,0,627.5,948Z" transform="translate(-19 -35)"/>
        </g>
        <g id="Elipse_40" data-name="Elipse 40">
            <path class="cls-3" d="M693.5,890a3,3,0,1,0,2.5,3A2.78,2.78,0,0,0,693.5,890Z" transform="translate(-19 -35)"/>
        </g>
        <g id="Elipse_41" data-name="Elipse 41">
            <path class="cls-3" d="M648,956a3,3,0,1,0,3,3A3,3,0,0,0,648,956Z" transform="translate(-19 -35)"/>
        </g>
        <g id="Elipse_42" data-name="Elipse 42">
            <path class="cls-3" d="M703.5,900a3,3,0,1,0,2.5,3A2.78,2.78,0,0,0,703.5,900Z" transform="translate(-19 -35)"/>
        </g>
        <g id="Elipse_43" data-name="Elipse 43">
            <ellipse class="cls-3" cx="618.5" cy="914" rx="2.5" ry="3"/>
        </g>
        <g id="Elipse_44" data-name="Elipse 44">
            <path class="cls-3" d="M682.5,892a3,3,0,1,0,2.5,3A2.78,2.78,0,0,0,682.5,892Z" transform="translate(-19 -35)"/>
        </g>
        <g id="Elipse_45" data-name="Elipse 45">
            <path class="cls-3" d="M659.5,952a3,3,0,1,0,2.5,3A2.78,2.78,0,0,0,659.5,952Z" transform="translate(-19 -35)"/>
        </g>
        <g id="Elipse_46" data-name="Elipse 46">
            <ellipse class="cls-3" cx="674.5" cy="869" rx="2.5" ry="3"/>
        </g>
        <g id="Elipse_47" data-name="Elipse 47">
            <path class="cls-3" d="M651,943a3,3,0,1,0,3,3A3,3,0,0,0,651,943Z" transform="translate(-19 -35)"/>
        </g>
        <g id="Elipse_48" data-name="Elipse 48">
            <circle class="cls-3" cx="684" cy="879" r="3"/>
        </g>
        <g id="Elipse_49" data-name="Elipse 49">
            <path class="cls-3" d="M641,934a3,3,0,1,0,3,3A3,3,0,0,0,641,934Z" transform="translate(-19 -35)"/>
        </g>
        <g id="Elipse_50" data-name="Elipse 50">
            <path class="cls-3" d="M680.5,904a3,3,0,1,0,2.5,3A2.78,2.78,0,0,0,680.5,904Z" transform="translate(-19 -35)"/>
        </g>
        <g id="Elipse_51" data-name="Elipse 51">
            <ellipse class="cls-3" cx="642.5" cy="910" rx="2.5" ry="3"/>
        </g>
        <g id="Elipse_52" data-name="Elipse 52">
            <path class="cls-3" d="M690,914a3,3,0,1,0,3,3A3,3,0,0,0,690,914Z" transform="translate(-19 -35)"/>
        </g>
        <g id="Elipse_53" data-name="Elipse 53">
            <circle class="cls-3" cx="633" cy="901" r="3"/>
        </g>
        <g id="Elipse_54" data-name="Elipse 54">
            <ellipse class="cls-3" cx="659.5" cy="883" rx="2.5" ry="3"/>
        </g>
        <g id="Elipse_55" data-name="Elipse 55">
            <circle class="cls-3" cx="646" cy="897" r="3"/>
        </g>
        <g id="Elipse_56" data-name="Elipse 56">
            <path class="cls-3" d="M691,926a3,3,0,1,0,3,3A3,3,0,0,0,691,926Z" transform="translate(-19 -35)"/>
        </g>
        <g id="Elipse_57" data-name="Elipse 57">
            <path class="cls-3" d="M675.5,929a2.5,2.5,0,1,0,2.5,2.5A2.5,2.5,0,0,0,675.5,929Z" transform="translate(-19 -35)"/>
        </g>
        <g id="Elipse_58" data-name="Elipse 58">
            <circle class="cls-3" cx="648.5" cy="872.5" r="2.5"/>
        </g>
        <g id="Elipse_59" data-name="Elipse 59">
            <circle class="cls-3" cx="634.5" cy="886.5" r="2.5"/>
        </g>
        <g id="Elipse_60" data-name="Elipse 60">
            <path class="cls-3" d="M666.5,920a2.5,2.5,0,1,0,2.5,2.5A2.5,2.5,0,0,0,666.5,920Z" transform="translate(-19 -35)"/>
        </g>
        <g id="Elipse_61" data-name="Elipse 61">
            <path class="cls-3" d="M676,940a3,3,0,1,0,3,3A3,3,0,0,0,676,940Z" transform="translate(-19 -35)"/>
        </g>
    </g>
    <g id="torso">
        <g id="Forma_60" data-name="Forma 60">
            <path class="cls-29" d="M713,608c-29-10-102-36-102-36l-72,97-72-98s-98.67,32-104,34c-26,8.67-12.33,37-23,71,20.33,23.33,89,92.33,197,92s181.67-64.67,201-93C730,663.33,742,618,713,608Z" transform="translate(-19 -35)"/>
        </g>
        <g id="Forma_61" data-name="Forma 61">
            <path class="cls-11" d="M441,580c-1.67.33-7.33,1.67-9,3-13.33,42.67-7,87-7,87a20.23,20.23,0,0,0,5,0C427.67,662.67,425.33,593.67,441,580Z" transform="translate(-19 -35)"/>
        </g>
        <g id="Elipse_62" data-name="Elipse 62">
            <circle class="cls-30" cx="432.5" cy="687.5" r="18.5" transform="translate(-123.54 43.16) rotate(-9.22)"/>
        </g>
        <g id="Elipse_63" data-name="Elipse 63">
            <circle class="cls-3" cx="432.5" cy="687.5" r="13.5" transform="translate(-321.69 997.76) rotate(-82.98)"/>
        </g>
        <g id="Forma_62" data-name="Forma 62">
            <path class="cls-11" d="M686,607s-3.33-9.17-28-11a21.68,21.68,0,0,0-10-11c-2-1.25-10-3-10-3s15,11.33,14,16c-11.67-.33-22,7-22,7s-9,5.67-9,22a29.23,29.23,0,0,0,7,1c-1-13,7-20,7-20a62.69,62.69,0,0,1,21-6c19-1.42,26,8,26,8a21.81,21.81,0,0,1,5,18,16,16,0,0,0,7,0C694,612.33,686,607,686,607Z" transform="translate(-19 -35)"/>
        </g>
        <g id="Forma_63" data-name="Forma 63">
            <path class="cls-3" d="M667,711c17.75-1.25,26-83,26-83h-5c-3.5,24-10.5,72.25-22,79-2,2.75-12,4.25-16,1-11.5-3.75-23.25-67-22-81a45.05,45.05,0,0,0-6,0s6,79.25,26,84H637a9.08,9.08,0,0,1,0,3c1.75,2.5,35.75,3.25,40,1a19.7,19.7,0,0,0,0-4S672.5,711.25,667,711Z" transform="translate(-19 -35)"/>
        </g>
        <g id="Forma_64" data-name="Forma 64">
            <path class="cls-11" d="M637,710c-.75-3.25-9.75-4.75-12-4s-2.25,2.25-2,5c.25,4.5,9,6.5,13,5C637,715.5,637.75,713.25,637,710Z" transform="translate(-19 -35)"/>
        </g>
        <g id="Forma_65" data-name="Forma 65">
            <path class="cls-11" d="M689,706c-3-.5-7.75.75-10,2s-3,5.25-1,7,9.75,2,13-2S692,706.5,689,706Z" transform="translate(-19 -35)"/>
        </g>
        <g id="Forma_59" data-name="Forma 59">
            <polygon class="cls-3" points="450 541 520 703 590 541 450 541"/>
        </g>
        <g id="Forma_58" data-name="Forma 58">
            <path class="cls-31" d="M579,543l-81,1s4,28.67-29,30c-.33,0,3.67,26,69,27,62.67-.67,72-28.33,72-28C573,572,579,543,579,543Z" transform="translate(-19 -35)"/>
        </g>
        <g id="Forma_57" data-name="Forma 57">
            <path class="cls-32" d="M498,543v5s14.67,13.33,42,13,40-13,40-13v-4Z" transform="translate(-19 -35)"/>
        </g>
        <g id="Forma_56" data-name="Forma 56">
            <path class="cls-31" d="M638,403c-3.33-4.67-38-69-38-69L459,344s-17.67,54-20,60c-7,6.67-8.33,29.33,2,37,1.67,1,2.67,1.33,3,1,.63,27,19.1,62.64,23.77,70,15,21.33,39.56,46,72.23,46s52-24.67,65-39,24.33-43.67,29-78c0,0,.33,1,4,0C644.33,437.67,646,410,638,403Z" transform="translate(-19 -35)"/>
        </g>
        <g id="cabello">
            <path class="cls-33" d="M596,313c-94-63.5-163.33,26.33-164,32s3.33,53,5,56,18,31,18,31-3-33.67,8-56c5.33-8.33,19.33-10.67,26-15-3,7.67-17,16-17,16s53.33-24,66-20c-1.67,2.33-.67,5-24,13,53.67-5,51-21,80-17,6.33,5,14.67,46.33,36,73,.5,0,14.5-30.5,16-65C646,358,647.5,304.5,596,313Z" transform="translate(-19 -35)"/>
        </g>
    </g>
</svg>