<svg xmlns="http://www.w3.org/2000/svg" viewBox="0 0 189.44 189.39">
<defs>
<style>
.cls-1{fill:#fff;}
.cls-2{fill:#BF1B23;}
</style>
</defs>
<g id="Capa_2" data-name="Capa 2">
<g id="Capa_1-2" data-name="Capa 1">
<g id="telefono">
<path id="telefono1" class="cls-2" d="M97.16.05c51.09.87,93.41,44,92.26,97.47-1.09,50.69-44,92.19-96.48,91.87C41.32,189.08-.69,145.91,0,93.05A94.24,94.24,0,0,1,97.16.05Z"/>
<path id="telefono2" class="cls-1" d="M132.92,95.87c0,15.16,0,30.33,0,45.49,0,6.34-2,8.6-8.24,8.63-20.67.12-41.33.21-62,0-9.9-.12-14.39-5.19-14.4-15.19q0-39,0-78c0-10.12,4.95-15.05,15-15.05q30.5,0,61,0c6.59,0,8.64,2,8.66,8.64Q133,73.13,132.92,95.87Zm-26.47,32.74c4.51-2.31,9.13-4,12.93-6.82,3.54-2.62,3.19-6.2-.26-9.32-2.71-2.45-5.24-5.11-7.79-7.74-2.2-2.28-4.25-2.62-6.94-.52-6.42,5-6.67,5.12-13.11-.06-3.71-3-6.79-6.79-10.08-10.3-3.54-3.79-4.36-7.38.32-11.18,3.3-2.67,2.68-5.68-.43-8.41-2.37-2.09-4.54-4.4-6.84-6.58-4.37-4.15-6.91-4.28-10.76.23a18.14,18.14,0,0,0-3.63,7.48c-1.63,7,.19,13.58,4,19.53a85.46,85.46,0,0,0,26,26.58C94.54,124.55,100.28,126,106.45,128.61Z"/>
<path id="telefono3" class="cls-2" d="M106.45,128.61c-6.17-2.57-11.91-4.06-16.66-7.11a85.46,85.46,0,0,1-26-26.58c-3.77-6-5.59-12.52-4-19.53a18.14,18.14,0,0,1,3.63-7.48c3.85-4.51,6.39-4.38,10.76-.23,2.3,2.18,4.47,4.49,6.84,6.58,3.11,2.73,3.73,5.74.43,8.41-4.68,3.8-3.86,7.39-.32,11.18,3.29,3.51,6.37,7.3,10.08,10.3,6.44,5.18,6.69,5.06,13.11.06,2.69-2.1,4.74-1.76,6.94.52,2.55,2.63,5.08,5.29,7.79,7.74,3.45,3.12,3.8,6.7.26,9.32C115.58,124.59,111,126.3,106.45,128.61Z"/>
<path id="telefono4" class="cls-1" d="M139.32,149.47V42.11c3.34-.6,5.42,1.16,6.41,4.55a10.85,10.85,0,0,1,.18,3q0,46.17,0,92.32C145.9,147.59,144.53,149,139.32,149.47Z"/>
</g>
</g>
</g>
</svg>