<svg id="Capa_4" data-name="Capa 4" xmlns="http://www.w3.org/2000/svg" viewBox="0 0 5.83 8.33">
    <defs>
        <style>
            .cls-1{fill:#0a69b3;}
        </style>
    </defs>
    <path class="cls-1" d="M6.8.83H3.43A1.24,1.24,0,0,0,2.2,2.07V7.93A1.24,1.24,0,0,0,3.43,9.17H6.8A1.24,1.24,0,0,0,8,7.93V2.07A1.24,1.24,0,0,0,6.8.83ZM3.43,1.4H6.8a.67.67,0,0,1,.66.67v4.7H2.77V2.07A.67.67,0,0,1,3.43,1.4ZM6.8,8.6H3.43a.67.67,0,0,1-.66-.67V7.34H7.46v.59A.67.67,0,0,1,6.8,8.6Z" transform="translate(-2.2 -0.83)"/>
    <path class="cls-1" d="M5,2.22a.23.23,0,1,0,0-.45.23.23,0,1,0,0,.45Z" transform="translate(-2.2 -0.83)"/>
    <path class="cls-1" d="M5,7.69a.23.23,0,0,0-.23.23A.23.23,0,0,0,5,8.15a.24.24,0,0,0,.23-.23A.23.23,0,0,0,5,7.69Z" transform="translate(-2.2 -0.83)"/>
</svg>