<svg id="Capa_5" data-name="Capa 5" xmlns="http://www.w3.org/2000/svg" viewBox="0 0 6.17 7.94">
    <defs>
        <style>
            .cls-1{fill:#e63033;}
        </style>
    </defs>
    <path class="cls-1" d="M5,9.18H5a.25.25,0,0,1-.2-.09C4.68,9,1.91,6,1.91,4.33a3.09,3.09,0,0,1,6.18,0C8.09,6,5.32,9,5.2,9.09A.25.25,0,0,1,5,9.18ZM5,1.79A2.54,2.54,0,0,0,2.47,4.33C2.47,5.42,4.14,7.52,5,8.49c.86-1,2.53-3.07,2.53-4.16A2.54,2.54,0,0,0,5,1.79Z" transform="translate(-1.91 -1.24)"/>
    <path class="cls-1" d="M5,5.58A1.39,1.39,0,1,1,6.39,4.19,1.39,1.39,0,0,1,5,5.58ZM5,3.35a.84.84,0,1,0,.84.84A.85.85,0,0,0,5,3.35Z" transform="translate(-1.91 -1.24)"/>
</svg>