<svg xmlns="http://www.w3.org/2000/svg" viewBox="0 0 189.46 189.32">
<defs>
<style>
.cls-1{fill:#fff;}
.cls-2{fill:#BF1B23;}
</style>
</defs>
<g id="Capa_2" data-name="Capa 2">
<g id="Capa_1-2" data-name="Capa 1">
<g id="ubicacion">
<path id="ubicacion1" class="cls-2" d="M94.47,189.32A94.39,94.39,0,0,1,0,94.45C.24,38.89,47.07-2.19,99,.09c48.53,2.13,91.21,43.4,90.45,96.4C188.72,147.53,146.52,189.36,94.47,189.32Z"/>
<path id="ubicacion2" class="cls-1" d="M95,118.81c-11.4-10.46-22-21.12-27-36-4.32-13-.23-25.88,10.47-33.68a28.36,28.36,0,0,1,33.56.09C122.63,57,126.6,70,122.35,83,118.7,94.13,107.89,108.41,95,118.81ZM80.1,69.73a15.32,15.32,0,1,0,30.63.26A15,15,0,0,0,95.79,54.66C86.87,54.54,80.16,61,80.1,69.73Z"/>
<path id="ubicacion3" class="cls-1" d="M108.74,122.17c2-3.8,4.64-4.58,8.09-3.17,4.07,1.67,8.45,2.85,12.14,5.14,7.15,4.44,6.95,11.12-.09,15.74-6,4-12.92,5.48-19.92,6.44-13,1.8-25.88,1.51-38.42-2.48A36.67,36.67,0,0,1,59,137.59c-4-3.24-3.81-8.07,0-11.59,4.83-4.49,10.94-6.43,17.26-7.38,1.37-.21,3.07,1.72,4.61,2.66l-.19.9c-1.66.41-3.36.73-5,1.25-3.23,1-6.61,1.83-9.57,3.4-2,1.07-4.93,3.47-4.75,4.94.25,2,2.77,4.46,4.88,5.27a77.44,77.44,0,0,0,16,4.53,84.19,84.19,0,0,0,35.13-1.81,28.68,28.68,0,0,0,7.55-3c1.78-1.09,4.28-3.2,4.16-4.68-.15-1.81-2.37-4.12-4.26-5-4-1.83-8.31-2.89-12.52-4.21A33.39,33.39,0,0,0,108.74,122.17Z"/>
</g>
</g>
</g>
</svg>